<svg width="255" height="110" viewBox="0 0 255 110" fill="none" xmlns="http://www.w3.org/2000/svg">
<path d="M129.136 103.08C129.136 102.296 129.984 101.784 131.184 101.784C131.76 101.784 132.304 101.88 132.816 102.04C132.832 102.248 132.832 102.44 132.832 102.6C132.832 103.656 132.432 104.344 131.088 104.344C129.936 104.344 129.136 103.896 129.136 103.08ZM133.984 92.68H132.544C132.576 92.952 132.608 93.384 132.608 93.656V95.64C132.112 95.656 131.6 95.672 131.104 95.672C130.144 95.672 129.296 95.624 128.384 95.544V96.744C129.328 96.808 130.16 96.856 131.072 96.856C131.584 96.856 132.096 96.84 132.608 96.824C132.624 98.136 132.72 99.704 132.768 100.936C132.304 100.84 131.808 100.792 131.28 100.792C129.184 100.792 127.984 101.864 127.984 103.208C127.984 104.648 129.168 105.496 131.312 105.496C133.472 105.496 134.08 104.232 134.08 102.92C134.08 102.808 134.08 102.696 134.08 102.584C134.896 103.048 135.696 103.688 136.496 104.44L137.2 103.368C136.368 102.616 135.328 101.816 134.032 101.304C133.968 99.96 133.856 98.36 133.84 96.744C134.8 96.68 135.728 96.584 136.608 96.44V95.208C135.76 95.368 134.816 95.496 133.84 95.576C133.856 94.824 133.872 94.072 133.888 93.64C133.904 93.32 133.936 93 133.984 92.68ZM126.08 92.776L124.672 92.664C124.672 93 124.624 93.432 124.576 93.8C124.368 95.128 123.84 98.184 123.84 100.536C123.84 102.696 124.128 104.456 124.448 105.592L125.568 105.512C125.552 105.336 125.536 105.112 125.536 104.952C125.52 104.76 125.552 104.456 125.6 104.232C125.76 103.448 126.352 101.816 126.736 100.696L126.08 100.184C125.808 100.84 125.424 101.816 125.168 102.536C125.056 101.752 125.008 101.08 125.008 100.312C125.008 98.52 125.488 95.352 125.808 93.864C125.856 93.576 125.984 93.048 126.08 92.776ZM150.064 93.96L149.152 94.344C149.68 95.08 150.24 96.088 150.656 96.936L151.6 96.504C151.216 95.736 150.464 94.536 150.064 93.96ZM152.128 93.144L151.232 93.56C151.776 94.264 152.368 95.256 152.784 96.088L153.712 95.64C153.328 94.904 152.56 93.704 152.128 93.144ZM145.632 92.648L144.016 92.632C144.112 93.096 144.16 93.672 144.16 94.264C144.16 95.928 143.984 99.992 143.984 102.36C143.984 104.968 145.584 105.928 147.888 105.928C151.392 105.928 153.456 103.912 154.56 102.392L153.648 101.304C152.512 102.968 150.848 104.616 147.92 104.616C146.4 104.616 145.296 103.992 145.296 102.232C145.296 99.848 145.424 96.056 145.488 94.264C145.504 93.736 145.552 93.176 145.632 92.648ZM169.504 92.616L168.128 92.488C168.128 92.856 168.08 93.384 168.032 93.704C167.968 94.088 167.872 94.472 167.776 94.872C166.384 94.888 165.024 95.208 163.664 96.008C163.52 95.56 163.376 95.128 163.28 94.76C163.168 94.312 163.04 93.784 162.96 93.336L161.632 93.768C161.824 94.184 162.016 94.712 162.16 95.208C162.304 95.688 162.464 96.184 162.64 96.68C161.184 97.864 160.176 99.8 160.176 101.64C160.176 103.512 161.184 104.52 162.4 104.52C163.6 104.52 164.576 103.72 165.568 102.52C165.808 102.856 166.064 103.16 166.32 103.448L167.328 102.616C166.992 102.296 166.656 101.912 166.336 101.496C167.248 100.184 168.064 98.088 168.672 96.056C170.736 96.408 172.032 97.976 172.032 100.056C172.032 102.52 170.176 104.28 166.832 104.568L167.584 105.704C171.008 105.224 173.296 103.288 173.296 100.104C173.296 97.352 171.536 95.384 168.976 94.968C169.072 94.584 169.152 94.216 169.232 93.864C169.296 93.56 169.392 93.016 169.504 92.616ZM161.328 101.544C161.328 100.296 162 98.824 163.056 97.832C163.52 99.048 164.032 100.184 164.496 100.904C164.624 101.112 164.736 101.32 164.864 101.512C164.16 102.456 163.312 103.256 162.528 103.256C161.808 103.256 161.328 102.6 161.328 101.544ZM165.28 99.896C164.896 99.256 164.432 98.184 164.032 97.08C165.088 96.424 166.224 96.04 167.472 95.976C166.976 97.624 166.288 99.288 165.6 100.424C165.488 100.248 165.376 100.072 165.28 99.896ZM184.496 94.2V95.48C186.256 95.672 189.36 95.672 191.072 95.48V94.184C189.472 94.424 186.24 94.488 184.496 94.2ZM185.12 100.712L183.968 100.6C183.792 101.384 183.696 101.944 183.696 102.488C183.696 103.992 184.896 104.888 187.584 104.888C189.232 104.888 190.576 104.744 191.584 104.552L191.552 103.208C190.256 103.496 189.024 103.624 187.584 103.624C185.408 103.624 184.88 102.92 184.88 102.184C184.88 101.752 184.96 101.304 185.12 100.712ZM181.44 92.968L180.016 92.84C180.016 93.192 179.968 93.608 179.904 93.976C179.712 95.304 179.184 98.04 179.184 100.392C179.184 102.552 179.456 104.392 179.776 105.528L180.928 105.448C180.912 105.288 180.896 105.064 180.88 104.888C180.864 104.712 180.912 104.408 180.96 104.168C181.104 103.416 181.68 101.72 182.096 100.584L181.424 100.072C181.152 100.728 180.768 101.688 180.496 102.408C180.4 101.624 180.352 100.952 180.352 100.168C180.352 98.376 180.848 95.512 181.152 94.04C181.216 93.752 181.36 93.24 181.44 92.968Z" fill="#162D43"/>
<path d="M63.2305 71V68.7852L65.1289 68.5215L74.0762 45.4062H77.0469L85.8359 68.5215L87.7168 68.7852V71H80.3691V68.7852L82.3027 68.4512L80.6152 63.7402H70.3672L68.627 68.4512L70.5605 68.7852V71H63.2305ZM71.4395 60.8398H79.5605L75.7988 50.4336L75.5879 49.8535H75.4824L75.2715 50.4336L71.4395 60.8398ZM91.8287 71V68.7852L94.6939 68.293V48.1309L91.8287 47.6387V45.4062H102.868C105.54 45.4062 107.626 45.9863 109.126 47.1465C110.637 48.2949 111.393 50.0234 111.393 52.332C111.393 53.4688 111.03 54.4883 110.303 55.3906C109.588 56.2812 108.639 56.9434 107.456 57.377C108.991 57.7051 110.204 58.4609 111.094 59.6445C111.985 60.8281 112.43 62.2051 112.43 63.7754C112.43 66.1191 111.669 67.9121 110.145 69.1543C108.622 70.3848 106.559 71 103.958 71H91.8287ZM98.1568 56.2871H103.764C105.006 56.2871 106.008 55.9297 106.77 55.2148C107.544 54.4883 107.93 53.5039 107.93 52.2617C107.93 50.8789 107.497 49.8477 106.629 49.168C105.762 48.4766 104.508 48.1309 102.868 48.1309H98.1568V56.2871ZM98.1568 68.293H103.958C105.54 68.293 106.764 67.9062 107.631 67.1328C108.51 66.3477 108.95 65.2402 108.95 63.8105C108.95 62.3105 108.581 61.1328 107.842 60.2773C107.116 59.4219 105.997 58.9941 104.485 58.9941H98.1568V68.293ZM126.948 71.3691C124.745 71.3691 122.847 70.8184 121.253 69.7168C119.671 68.6152 118.452 67.0918 117.597 65.1465C116.741 63.1895 116.314 60.9395 116.314 58.3965V58.0273C116.314 55.4844 116.735 53.2402 117.579 51.2949C118.435 49.3379 119.659 47.8086 121.253 46.707C122.847 45.5938 124.745 45.0371 126.948 45.0371C129.28 45.0371 131.232 45.5938 132.802 46.707C134.384 47.8086 135.579 49.3379 136.388 51.2949C137.196 53.2402 137.601 55.4844 137.601 58.0273V58.3965C137.601 60.9395 137.196 63.1895 136.388 65.1465C135.579 67.0918 134.384 68.6152 132.802 69.7168C131.232 70.8184 129.28 71.3691 126.948 71.3691ZM126.948 68.4863C128.648 68.4863 130.019 68.0645 131.062 67.2207C132.116 66.377 132.89 65.1992 133.382 63.6875C133.874 62.1641 134.12 60.4004 134.12 58.3965V57.9922C134.12 56 133.868 54.2539 133.364 52.7539C132.872 51.2422 132.099 50.0645 131.044 49.2207C129.989 48.3652 128.624 47.9375 126.948 47.9375C125.413 47.9375 124.112 48.3652 123.046 49.2207C121.98 50.0762 121.171 51.2598 120.62 52.7715C120.069 54.2715 119.794 56.0117 119.794 57.9922V58.3965C119.794 60.3887 120.069 62.1465 120.62 63.6699C121.171 65.1816 121.98 66.3652 123.046 67.2207C124.112 68.0645 125.413 68.4863 126.948 68.4863ZM153.56 71.3691C151.802 71.3691 150.232 71.0234 148.849 70.332C147.466 69.6406 146.377 68.6562 145.58 67.3789C144.783 66.0898 144.384 64.5488 144.384 62.7559V48.1309L141.519 47.6387V45.4062H150.713V47.6387L147.847 48.1309V62.7559C147.847 64.666 148.381 66.1191 149.447 67.1152C150.513 68.0996 151.902 68.5918 153.613 68.5918C155.336 68.5918 156.742 68.1055 157.832 67.1328C158.933 66.1602 159.484 64.7012 159.484 62.7559V48.1309L156.619 47.6387V45.4062H165.812V47.6387L162.947 48.1309V62.7559C162.947 65.5332 162.086 67.666 160.363 69.1543C158.652 70.6309 156.384 71.3691 153.56 71.3691ZM176.217 71V68.7852L179.082 68.293V48.0254H173.281L172.772 51.5762H170.17V45.4062H191.44V51.5762H188.873L188.346 48.0254H182.545V68.293L185.41 68.7852V71H176.217ZM218.314 71.3691C216.556 71.3691 214.986 71.0234 213.603 70.332C212.22 69.6406 211.13 68.6562 210.333 67.3789C209.536 66.0898 209.138 64.5488 209.138 62.7559V48.1309L206.273 47.6387V45.4062H215.466V47.6387L212.601 48.1309V62.7559C212.601 64.666 213.134 66.1191 214.201 67.1152C215.267 68.0996 216.656 68.5918 218.367 68.5918C220.089 68.5918 221.495 68.1055 222.585 67.1328C223.687 66.1602 224.238 64.7012 224.238 62.7559V48.1309L221.372 47.6387V45.4062H230.566V47.6387L227.701 48.1309V62.7559C227.701 65.5332 226.839 67.666 225.117 69.1543C223.406 70.6309 221.138 71.3691 218.314 71.3691ZM243.889 71.3691C242.33 71.3691 240.83 71.1406 239.389 70.6836C237.947 70.2266 236.57 69.5234 235.258 68.5742V63.1074H237.947L238.527 67.1328C239.289 67.6016 240.115 67.9648 241.006 68.2227C241.896 68.4805 242.857 68.6094 243.889 68.6094C245.635 68.6094 246.988 68.2227 247.949 67.4492C248.91 66.6641 249.391 65.6387 249.391 64.373C249.391 63.2012 248.957 62.2285 248.09 61.4551C247.223 60.6816 245.676 60.043 243.449 59.5391C240.801 58.9297 238.779 58.0039 237.385 56.7617C235.99 55.5078 235.293 53.9316 235.293 52.0332C235.293 50.6973 235.644 49.502 236.348 48.4473C237.062 47.3926 238.053 46.5605 239.318 45.9512C240.584 45.3418 242.06 45.0371 243.748 45.0371C245.541 45.0371 247.123 45.3125 248.494 45.8633C249.877 46.4023 251.014 47.0586 251.904 47.832V52.9473H249.215L248.635 49.291C248.107 48.8691 247.451 48.5176 246.666 48.2363C245.881 47.9551 244.908 47.8145 243.748 47.8145C242.26 47.8145 241.053 48.1953 240.127 48.957C239.213 49.7188 238.756 50.7266 238.756 51.9805C238.756 53.082 239.195 53.9844 240.074 54.6875C240.953 55.3789 242.476 55.9941 244.644 56.5332C247.34 57.2012 249.379 58.1914 250.762 59.5039C252.156 60.8047 252.853 62.416 252.853 64.3379C252.853 65.709 252.484 66.9277 251.746 67.9941C251.008 69.0488 249.965 69.875 248.617 70.4727C247.281 71.0703 245.705 71.3691 243.889 71.3691Z" fill="#162D43"/>
<path d="M44.7972 34.9463C44.6038 32.736 44.0602 31.1837 43.1664 30.2895C42.2725 29.3952 41.1874 29.0039 39.9111 29.1156C37.8875 29.2926 35.9767 30.0402 34.1784 31.3581C32.4086 32.6423 30.8752 34.2979 29.5782 36.3249C28.2784 38.3207 27.2834 40.5723 26.593 43.0795C25.9338 45.584 25.7159 48.1126 25.9392 50.6653C26.0263 51.6615 26.19 52.6354 26.4301 53.5868C26.6701 54.5382 27.011 55.3868 27.4527 56.1324C27.9255 56.8752 28.5092 57.4515 29.2038 57.8613C29.9295 58.2684 30.8216 58.4256 31.8801 58.333C33.4989 58.1914 34.9619 57.7026 36.269 56.8668C37.5734 55.9998 38.7173 54.9116 39.7006 53.6021C40.7151 52.29 41.559 50.8202 42.2322 49.1928C42.9366 47.5627 43.4981 45.9138 43.9169 44.2459C44.3329 42.547 44.6115 40.8914 44.7528 39.2792C44.8941 37.667 44.9089 36.2227 44.7972 34.9463ZM53.5762 34.1783C53.7532 36.2018 53.6582 38.3432 53.2912 40.6025C52.9554 42.8591 52.3691 45.122 51.5325 47.391C50.6958 49.6601 49.6317 51.8392 48.3401 53.9285C47.0485 56.0178 45.5342 57.8913 43.797 59.549C42.091 61.204 40.1724 62.5795 38.041 63.6757C35.9381 64.7381 33.657 65.3768 31.1976 65.592C29.2675 65.7608 27.4929 65.5553 25.8737 64.9755C24.2856 64.3929 22.8909 63.5111 21.6897 62.3301C20.4857 61.1179 19.5076 59.6193 18.7554 57.8344C18.0032 56.0494 17.5291 54.0362 17.333 51.7947C17.1614 49.8335 17.2605 47.7387 17.6302 45.5105C17.9999 43.2823 18.6072 41.0804 19.452 38.9047C20.3253 36.6952 21.409 34.5614 22.7033 32.5033C24.0288 30.4424 25.5472 28.6156 27.2586 27.0229C28.9674 25.399 30.8576 24.0573 32.9294 22.9977C35.0323 21.9354 37.2823 21.2993 39.6794 21.0896C41.5473 20.9262 43.2908 21.1344 44.91 21.7143C46.5265 22.263 47.9495 23.1109 49.1792 24.2581C50.4089 25.4053 51.3957 26.8247 52.1397 28.5163C52.9149 30.2051 53.3937 32.0925 53.5762 34.1783ZM66.7471 56.7412C67.4963 55.264 68.173 53.8559 68.7773 52.5169C69.379 51.1468 69.938 49.8274 70.4544 48.5588C71.0019 47.2875 71.521 46.0501 72.0117 44.8465C72.5309 43.609 73.0656 42.3702 73.6158 41.13L78.996 28.9429C78.6049 29.1339 77.9432 29.4584 77.0108 29.9165C76.1095 30.3717 75.1332 30.865 74.0817 31.3961C73.0587 31.8934 72.081 32.3711 71.1486 32.8291C70.2473 33.2844 69.6154 33.5906 69.2527 33.7478C69.1647 33.8183 69.0443 33.8758 68.8914 33.9206C68.7668 33.9315 68.6734 33.9397 68.6112 33.9451C68.1131 33.9887 67.644 33.8258 67.2039 33.4565C66.7922 33.0534 66.5564 32.5094 66.4964 31.8245C66.4447 31.233 66.5743 30.5629 66.8852 29.8142C67.1961 29.0655 67.8001 28.2598 68.6971 27.3971C70.6603 25.8137 72.6358 24.3704 74.6235 23.0672C75.4543 22.524 76.3332 21.9922 77.2601 21.472C78.1843 20.9206 79.0984 20.4328 80.0024 20.0086C80.9348 19.5506 81.8428 19.1732 82.7266 18.8763C83.6414 18.5767 84.488 18.3928 85.2663 18.3247C86.1691 18.2457 86.9691 18.4267 87.6665 18.8676C88.3922 19.2746 88.8068 20.0696 88.9103 21.2526C88.943 21.6262 88.95 22.0648 88.9313 22.5683C88.9099 23.0407 88.7978 23.5524 88.5951 24.1034C88.2126 25.1094 87.7456 26.405 87.1942 27.9903C86.6711 29.5418 86.0995 31.2544 85.4792 33.1281C84.8561 34.9707 84.1959 36.9263 83.4986 38.9949C82.8324 41.0609 82.1478 43.097 81.445 45.1034C80.7734 47.1071 80.1104 49.0315 79.4563 50.8768C78.7994 52.691 78.2026 54.296 77.666 55.6918C77.2807 56.6666 76.7925 57.5406 76.2014 58.3138C75.6415 59.0843 75.0253 59.7499 74.3528 60.3106C73.7088 60.8375 73.0241 61.2582 72.2987 61.5726C71.5734 61.887 70.8838 62.0728 70.2301 62.13C69.2339 62.2172 68.3546 62.0275 67.5923 61.5609C66.8638 61.1227 66.4547 60.3899 66.3648 59.3626C66.3348 59.0202 66.3306 58.6127 66.352 58.1403C66.3734 57.6679 66.5051 57.2015 66.7471 56.7412Z" fill="#162D43" fill-opacity="0.3"/>
</svg>
