<svg width="210" height="140" viewBox="0 0 210 140" fill="none" xmlns="http://www.w3.org/2000/svg">
<path d="M150.073 73.2541C149.879 71.0438 149.336 69.4916 148.442 68.5973C147.548 67.7031 146.463 67.3118 145.187 67.4234C143.163 67.6005 141.252 68.348 139.454 69.666C137.684 70.9501 136.151 72.6057 134.854 74.6327C133.554 76.6286 132.559 78.8801 131.869 81.3873C131.209 83.8918 130.992 86.4204 131.215 88.9732C131.302 89.9694 131.466 90.9432 131.706 91.8946C131.946 92.8461 132.287 93.6946 132.728 94.4402C133.201 95.183 133.785 95.7594 134.479 96.1691C135.205 96.5762 136.097 96.7334 137.156 96.6408C138.775 96.4992 140.238 96.0104 141.545 95.1746C142.849 94.3076 143.993 93.2194 144.976 91.9099C145.991 90.5978 146.835 89.128 147.508 87.5007C148.212 85.8706 148.774 84.2216 149.193 82.5538C149.609 80.8548 149.887 79.1992 150.028 77.587C150.17 75.9748 150.185 74.5305 150.073 73.2541ZM158.852 72.4861C159.029 74.5096 158.934 76.651 158.567 78.9104C158.231 81.167 157.645 83.4298 156.808 85.6989C155.971 87.9679 154.907 90.1471 153.616 92.2363C152.324 94.3256 150.81 96.1991 149.073 97.8568C147.367 99.5118 145.448 100.887 143.317 101.984C141.214 103.046 138.933 103.685 136.473 103.9C134.543 104.069 132.768 103.863 131.149 103.283C129.561 102.701 128.167 101.819 126.965 100.638C125.761 99.4257 124.783 97.9272 124.031 96.1422C123.279 94.3572 122.805 92.344 122.609 90.1025C122.437 88.1413 122.536 86.0465 122.906 83.8183C123.276 81.5901 123.883 79.3882 124.728 77.2126C125.601 75.003 126.685 72.8692 127.979 70.8111C129.304 68.7502 130.823 66.9234 132.534 65.3307C134.243 63.7068 136.133 62.3651 138.205 61.3055C140.308 60.2432 142.558 59.6072 144.955 59.3975C146.823 59.234 148.566 59.4422 150.186 60.0221C151.802 60.5708 153.225 61.4187 154.455 62.5659C155.685 63.7131 156.671 65.1325 157.415 66.8241C158.191 68.513 158.669 70.4003 158.852 72.4861ZM203.32 62.855C202.792 64.3442 202.236 65.8829 201.654 67.4709C201.069 69.0279 200.483 70.5848 199.898 72.1417C199.344 73.6959 198.787 75.219 198.227 76.711C197.699 78.2002 197.195 79.6089 196.715 80.937C195.547 84.082 194.418 87.1295 193.327 90.0796L201.686 89.3483C202.308 89.2938 202.813 89.5006 203.199 89.9688C203.582 90.4058 203.802 90.9512 203.859 91.6049C203.911 92.1964 203.855 92.813 203.692 93.4547C203.557 94.0625 203.309 94.6332 202.948 95.1667C202.586 95.7002 202.094 96.1668 201.47 96.5664C200.875 96.9322 200.157 97.1518 199.316 97.2254L190.771 97.973L184.973 114.526C184.508 115.664 183.891 116.503 183.122 117.04C182.385 117.575 181.611 117.878 180.802 117.949C179.775 118.039 178.86 117.805 178.059 117.248C177.288 116.688 176.861 115.926 176.776 114.96C176.757 114.743 176.769 114.522 176.812 114.299C176.856 114.075 176.913 113.835 176.985 113.578L181.898 98.7492L169.43 99.84C168.964 99.8809 168.526 99.9035 168.119 99.9077C167.709 99.8809 167.326 99.8046 166.97 99.6789C166.645 99.5505 166.378 99.3699 166.169 99.1372C165.958 98.8734 165.832 98.508 165.791 98.041C165.745 97.5118 165.799 96.8796 165.955 96.1446C166.141 95.4068 166.482 94.4672 166.978 93.3258C167.526 92.0545 168.146 90.5416 168.84 88.787C169.562 86.9985 170.307 85.1139 171.074 83.1332C171.839 81.1214 172.6 79.0628 173.357 76.9576C174.145 74.8496 174.894 72.8236 175.602 70.8795C176.307 68.9042 176.932 67.0772 177.475 65.3985C178.015 63.6886 178.455 62.2543 178.792 61.0954C179.145 59.7471 179.781 58.766 180.699 58.1524C181.615 57.5076 182.572 57.1416 183.568 57.0545C184.626 56.9619 185.583 57.1448 186.439 57.6032C187.323 58.0277 187.815 58.6278 187.914 59.4034C187.897 59.5617 187.879 59.7201 187.862 59.8785C187.872 60.003 187.854 60.1458 187.805 60.3069C186.972 62.9834 186.081 65.6965 185.129 68.4461C184.175 71.1646 183.202 73.8534 182.212 76.5123C181.252 79.1686 180.286 81.747 179.312 84.2476C178.339 86.7482 177.433 89.1174 176.593 91.3554C177.4 91.2534 178.13 91.1738 178.784 91.1166C179.469 91.0567 180.076 91.0036 180.605 90.9573C182.099 90.8266 183.282 90.7231 184.154 90.6468L185.466 90.5791L185.908 89.1759C186.205 88.2715 186.632 87.0578 187.189 85.5348C187.774 83.9778 188.418 82.1962 189.121 80.1898C189.855 78.1807 190.614 76.1066 191.4 73.9675C192.213 71.7945 193.012 69.623 193.794 67.4527C194.608 65.2798 195.372 63.2524 196.085 61.3705C196.731 59.4319 197.516 57.9987 198.438 57.071C199.389 56.1094 200.27 55.5932 201.079 55.5224C201.795 55.4598 202.428 55.7024 202.978 56.2503C203.528 56.7982 203.85 57.617 203.946 58.7066C203.997 59.2981 203.975 59.9431 203.88 60.6416C203.784 61.3401 203.597 62.0779 203.32 62.855Z" fill="black" fill-opacity="0.35"/>
<path d="M1.23047 84V81.7852L3.12891 81.5215L12.0762 58.4062H15.0469L23.8359 81.5215L25.7168 81.7852V84H18.3691V81.7852L20.3027 81.4512L18.6152 76.7402H8.36719L6.62695 81.4512L8.56055 81.7852V84H1.23047ZM9.43945 73.8398H17.5605L13.7988 63.4336L13.5879 62.8535H13.4824L13.2715 63.4336L9.43945 73.8398ZM40.1646 84.3691C37.5982 84.3691 35.4537 83.8066 33.731 82.6816C32.0201 81.5566 30.731 80.0156 29.8638 78.0586C29.0084 76.1016 28.5806 73.8809 28.5806 71.3965V71.0273C28.5806 68.5195 29.0318 66.293 29.9341 64.3477C30.8365 62.3906 32.1314 60.8496 33.8189 59.7246C35.5064 58.5996 37.522 58.0371 39.8658 58.0371C41.5181 58.0371 43.0298 58.2949 44.4009 58.8105C45.772 59.3262 46.9088 59.9824 47.8111 60.7793V66.2988H45.0513L44.6822 62.2559C43.4986 61.3535 41.8873 60.9023 39.8482 60.9023C38.1724 60.9023 36.7545 61.3359 35.5943 62.2031C34.4341 63.0586 33.5552 64.2422 32.9576 65.7539C32.3599 67.2656 32.0611 69.0117 32.0611 70.9922V71.3965C32.0611 74.6191 32.7701 77.1211 34.188 78.9023C35.606 80.6719 37.6392 81.5566 40.2877 81.5566C41.108 81.5566 41.9107 81.457 42.6959 81.2578C43.481 81.0586 44.1314 80.8008 44.647 80.4844L45.0338 76.916H47.7408V82.4707C46.7798 83.0684 45.6314 83.5371 44.2955 83.877C42.9595 84.2051 41.5826 84.3691 40.1646 84.3691ZM64.2804 84.3691C61.714 84.3691 59.5695 83.8066 57.8468 82.6816C56.1359 81.5566 54.8468 80.0156 53.9796 78.0586C53.1241 76.1016 52.6964 73.8809 52.6964 71.3965V71.0273C52.6964 68.5195 53.1476 66.293 54.0499 64.3477C54.9523 62.3906 56.2472 60.8496 57.9347 59.7246C59.6222 58.5996 61.6378 58.0371 63.9816 58.0371C65.6339 58.0371 67.1456 58.2949 68.5167 58.8105C69.8878 59.3262 71.0245 59.9824 71.9269 60.7793V66.2988H69.1671L68.798 62.2559C67.6144 61.3535 66.003 60.9023 63.964 60.9023C62.2882 60.9023 60.8702 61.3359 59.7101 62.2031C58.5499 63.0586 57.671 64.2422 57.0734 65.7539C56.4757 67.2656 56.1769 69.0117 56.1769 70.9922V71.3965C56.1769 74.6191 56.8859 77.1211 58.3038 78.9023C59.7218 80.6719 61.755 81.5566 64.4034 81.5566C65.2238 81.5566 66.0265 81.457 66.8116 81.2578C67.5968 81.0586 68.2472 80.8008 68.7628 80.4844L69.1495 76.916H71.8566V82.4707C70.8956 83.0684 69.7472 83.5371 68.4113 83.877C67.0753 84.2051 65.6984 84.3691 64.2804 84.3691ZM76.8298 84V81.7852L79.695 81.293V61.1309L76.8298 60.6387V58.4062H95.779V64.5586H93.0016L92.6149 61.0781H83.1579V69.4102H92.5973V72.1348H83.1579V81.3984H93.1774L93.5641 77.8652H96.3239V84H76.8298ZM110.455 84.3691C108.897 84.3691 107.397 84.1406 105.955 83.6836C104.514 83.2266 103.137 82.5234 101.824 81.5742V76.1074H104.514L105.094 80.1328C105.856 80.6016 106.682 80.9648 107.573 81.2227C108.463 81.4805 109.424 81.6094 110.455 81.6094C112.201 81.6094 113.555 81.2227 114.516 80.4492C115.477 79.6641 115.957 78.6387 115.957 77.373C115.957 76.2012 115.524 75.2285 114.656 74.4551C113.789 73.6816 112.242 73.043 110.016 72.5391C107.367 71.9297 105.346 71.0039 103.951 69.7617C102.557 68.5078 101.86 66.9316 101.86 65.0332C101.86 63.6973 102.211 62.502 102.914 61.4473C103.629 60.3926 104.619 59.5605 105.885 58.9512C107.151 58.3418 108.627 58.0371 110.315 58.0371C112.108 58.0371 113.69 58.3125 115.061 58.8633C116.444 59.4023 117.58 60.0586 118.471 60.832V65.9473H115.781L115.201 62.291C114.674 61.8691 114.018 61.5176 113.233 61.2363C112.448 60.9551 111.475 60.8145 110.315 60.8145C108.826 60.8145 107.619 61.1953 106.694 61.957C105.78 62.7188 105.323 63.7266 105.323 64.9805C105.323 66.082 105.762 66.9844 106.641 67.6875C107.52 68.3789 109.043 68.9941 111.211 69.5332C113.906 70.2012 115.946 71.1914 117.328 72.5039C118.723 73.8047 119.42 75.416 119.42 77.3379C119.42 78.709 119.051 79.9277 118.313 80.9941C117.574 82.0488 116.531 82.875 115.184 83.4727C113.848 84.0703 112.272 84.3691 110.455 84.3691ZM133.095 84.3691C131.536 84.3691 130.036 84.1406 128.595 83.6836C127.153 83.2266 125.776 82.5234 124.464 81.5742V76.1074H127.153L127.733 80.1328C128.495 80.6016 129.321 80.9648 130.212 81.2227C131.102 81.4805 132.063 81.6094 133.095 81.6094C134.841 81.6094 136.194 81.2227 137.155 80.4492C138.116 79.6641 138.596 78.6387 138.596 77.373C138.596 76.2012 138.163 75.2285 137.296 74.4551C136.429 73.6816 134.882 73.043 132.655 72.5391C130.007 71.9297 127.985 71.0039 126.591 69.7617C125.196 68.5078 124.499 66.9316 124.499 65.0332C124.499 63.6973 124.85 62.502 125.554 61.4473C126.268 60.3926 127.259 59.5605 128.524 58.9512C129.79 58.3418 131.266 58.0371 132.954 58.0371C134.747 58.0371 136.329 58.3125 137.7 58.8633C139.083 59.4023 140.22 60.0586 141.11 60.832V65.9473H138.421L137.841 62.291C137.313 61.8691 136.657 61.5176 135.872 61.2363C135.087 60.9551 134.114 60.8145 132.954 60.8145C131.466 60.8145 130.259 61.1953 129.333 61.957C128.419 62.7188 127.962 63.7266 127.962 64.9805C127.962 66.082 128.401 66.9844 129.28 67.6875C130.159 68.3789 131.682 68.9941 133.85 69.5332C136.546 70.2012 138.585 71.1914 139.968 72.5039C141.362 73.8047 142.059 75.416 142.059 77.3379C142.059 78.709 141.69 79.9277 140.952 80.9941C140.214 82.0488 139.171 82.875 137.823 83.4727C136.487 84.0703 134.911 84.3691 133.095 84.3691Z" fill="white"/>
<path d="M46.896 103.184L46.112 102.432C45.872 102.48 45.296 102.528 44.992 102.528H35.808C35.216 102.528 34.544 102.464 33.984 102.384V103.84C34.608 103.776 35.216 103.744 35.808 103.744H44.928C44.4 104.736 42.896 106.48 41.424 107.328L42.48 108.176C44.304 106.912 45.824 104.848 46.464 103.76C46.576 103.584 46.784 103.344 46.896 103.184ZM40.512 105.296H39.072C39.12 105.712 39.136 106.064 39.136 106.448C39.136 109.12 38.784 111.392 36.304 112.912C35.856 113.232 35.312 113.488 34.864 113.632L36.048 114.592C40.128 112.56 40.512 109.632 40.512 105.296ZM58.1951 101.568L56.7071 101.088C56.6111 101.504 56.3711 102.08 56.2111 102.352C55.5231 103.792 53.9391 106.112 51.1871 107.76L52.2911 108.592C54.0351 107.424 55.3791 106 56.3551 104.656H61.7631C61.4271 106.112 60.4511 108.176 59.2031 109.648C57.7471 111.344 55.7471 112.8 52.8191 113.664L53.9711 114.704C56.9791 113.6 58.8831 112.128 60.3391 110.352C61.7631 108.624 62.7551 106.464 63.1871 104.848C63.2671 104.592 63.4271 104.224 63.5551 104L62.4831 103.344C62.2271 103.456 61.8751 103.504 61.4431 103.504H57.1071C57.2511 103.28 57.3791 103.056 57.4911 102.832C57.6351 102.528 57.9231 101.984 58.1951 101.568ZM72.8991 111.936C72.8991 113.52 73.4431 114.288 76.4191 114.288C78.4191 114.288 80.0191 114.176 81.4431 113.968L81.5071 112.592C79.9071 112.896 78.3711 113.056 76.5151 113.056C74.6111 113.056 74.1951 112.704 74.1951 111.6V106.832C77.0271 106.256 79.9711 105.664 80.2431 105.616C79.7631 106.576 78.5951 108.336 77.3951 109.424L78.5151 110.096C79.7951 108.768 81.0591 106.768 81.7951 105.44C81.9071 105.232 82.0671 104.96 82.1791 104.8L81.2351 104.064C81.0431 104.176 80.7391 104.272 80.3871 104.352C79.7151 104.496 76.9151 105.072 74.1951 105.6V103.104C74.1951 102.64 74.2271 102.096 74.3071 101.632H72.7871C72.8671 102.096 72.8991 102.624 72.8991 103.104V105.84C71.2031 106.16 69.6831 106.432 68.9631 106.528L69.2031 107.856C69.8591 107.712 71.2831 107.424 72.8991 107.088V111.936ZM99.2031 103.296L98.3871 102.672C98.1311 102.752 97.7151 102.8 97.1871 102.8H91.0111C90.5311 102.8 89.6191 102.736 89.3951 102.704V104.16C89.5711 104.144 90.4511 104.08 91.0111 104.08H97.2511C96.8511 105.408 95.6831 107.296 94.5951 108.528C92.9471 110.368 90.5791 112.272 88.0031 113.28L89.0271 114.352C91.3951 113.28 93.5551 111.52 95.2671 109.68C96.8991 111.136 98.5951 113.024 99.6671 114.432L100.787 113.472C99.7471 112.208 97.7951 110.128 96.1151 108.688C97.2511 107.248 98.2591 105.376 98.8031 104C98.8991 103.776 99.1071 103.424 99.2031 103.296Z" fill="white"/>
</svg>
