<svg width="124" height="22" viewBox="0 0 124 22" fill="none" xmlns="http://www.w3.org/2000/svg">
<rect width="124" height="22" fill="#182F45" fill-opacity="0.5"/>
<path d="M10.2249 15L14.0169 5.964H14.0889L17.8809 15H16.5369L15.6369 12.72H12.3009L11.3769 15H10.2249ZM12.7089 11.712H15.2409L14.0049 8.556L12.7089 11.712ZM22.299 6.324C22.875 6.324 23.395 6.428 23.859 6.636C24.323 6.836 24.691 7.14 24.963 7.548C25.235 7.948 25.371 8.436 25.371 9.012C25.371 9.508 25.259 9.988 25.035 10.452C24.819 10.916 24.451 11.268 23.931 11.508L26.115 15H24.759L22.707 11.796C22.619 11.804 22.527 11.808 22.431 11.808H21.147V15H19.983V6.324H22.299ZM22.407 10.68C22.871 10.68 23.227 10.596 23.475 10.428C23.731 10.252 23.911 10.04 24.015 9.792C24.119 9.536 24.171 9.292 24.171 9.06C24.171 8.828 24.115 8.588 24.003 8.34C23.891 8.092 23.711 7.88 23.463 7.704C23.223 7.528 22.899 7.44 22.491 7.44H21.147V10.68H22.407ZM34.5694 14.352C34.4254 14.448 34.2294 14.556 33.9814 14.676C33.7334 14.796 33.4414 14.9 33.1054 14.988C32.7774 15.068 32.4174 15.104 32.0254 15.096C31.3454 15.088 30.7374 14.968 30.2014 14.736C29.6654 14.504 29.2054 14.188 28.8214 13.788C28.4454 13.38 28.1574 12.916 27.9574 12.396C27.7574 11.876 27.6574 11.32 27.6574 10.728C27.6574 10.08 27.7614 9.484 27.9694 8.94C28.1854 8.388 28.4854 7.912 28.8694 7.512C29.2534 7.104 29.7054 6.788 30.2254 6.564C30.7534 6.34 31.3294 6.228 31.9534 6.228C32.4734 6.228 32.9454 6.3 33.3694 6.444C33.7934 6.58 34.1574 6.74 34.4614 6.924L33.9934 8.016C33.7534 7.856 33.4614 7.704 33.1174 7.56C32.7734 7.416 32.3974 7.344 31.9894 7.344C31.5654 7.344 31.1654 7.432 30.7894 7.608C30.4134 7.776 30.0814 8.012 29.7934 8.316C29.5054 8.612 29.2774 8.964 29.1094 9.372C28.9494 9.772 28.8694 10.204 28.8694 10.668C28.8694 11.292 28.9974 11.856 29.2534 12.36C29.5174 12.856 29.8854 13.248 30.3574 13.536C30.8374 13.824 31.3974 13.968 32.0374 13.968C32.4854 13.968 32.8774 13.904 33.2134 13.776C33.5574 13.64 33.8414 13.484 34.0654 13.308L34.5694 14.352ZM43.8854 6.324V15H42.7094V11.196H38.1734V15H37.0094V6.324H38.1734V10.08H42.7094V6.324H43.8854ZM46.8644 6.324H48.0284V15H46.8644V6.324ZM50.3647 6.324H56.1247V7.44H53.7967V15H52.6327V7.44H50.3647V6.324ZM58.465 6.324H64.105V7.44H59.629V10.08H63.625V11.196H59.629V13.872H64.273V15H58.465V6.324ZM73.1569 14.352C73.0129 14.448 72.8169 14.556 72.5689 14.676C72.3209 14.796 72.0289 14.9 71.6929 14.988C71.3649 15.068 71.0049 15.104 70.6129 15.096C69.9329 15.088 69.3249 14.968 68.7889 14.736C68.2529 14.504 67.7929 14.188 67.4089 13.788C67.0329 13.38 66.7449 12.916 66.5449 12.396C66.3449 11.876 66.2449 11.32 66.2449 10.728C66.2449 10.08 66.3489 9.484 66.5569 8.94C66.7729 8.388 67.0729 7.912 67.4569 7.512C67.8409 7.104 68.2929 6.788 68.8129 6.564C69.3409 6.34 69.9169 6.228 70.5409 6.228C71.0609 6.228 71.5329 6.3 71.9569 6.444C72.3809 6.58 72.7449 6.74 73.0489 6.924L72.5809 8.016C72.3409 7.856 72.0489 7.704 71.7049 7.56C71.3609 7.416 70.9849 7.344 70.5769 7.344C70.1529 7.344 69.7529 7.432 69.3769 7.608C69.0009 7.776 68.6689 8.012 68.3809 8.316C68.0929 8.612 67.8649 8.964 67.6969 9.372C67.5369 9.772 67.4569 10.204 67.4569 10.668C67.4569 11.292 67.5849 11.856 67.8409 12.36C68.1049 12.856 68.4729 13.248 68.9449 13.536C69.4249 13.824 69.9849 13.968 70.6249 13.968C71.0729 13.968 71.4649 13.904 71.8009 13.776C72.1449 13.64 72.4289 13.484 72.6529 13.308L73.1569 14.352ZM74.9609 6.324H80.7209V7.44H78.3929V15H77.2289V7.44H74.9609V6.324ZM84.1173 11.928C84.1173 12.312 84.2093 12.66 84.3933 12.972C84.5773 13.276 84.8253 13.52 85.1373 13.704C85.4573 13.88 85.8093 13.968 86.1933 13.968C86.6013 13.968 86.9613 13.88 87.2733 13.704C87.5933 13.52 87.8453 13.276 88.0293 12.972C88.2213 12.66 88.3173 12.312 88.3173 11.928V6.324H89.4573V11.964C89.4573 12.596 89.3093 13.148 89.0133 13.62C88.7253 14.092 88.3333 14.456 87.8373 14.712C87.3493 14.968 86.8013 15.096 86.1933 15.096C85.5853 15.096 85.0373 14.968 84.5493 14.712C84.0613 14.456 83.6733 14.092 83.3853 13.62C83.0973 13.148 82.9533 12.596 82.9533 11.964V6.324H84.1173V11.928ZM94.6464 6.324C95.2224 6.324 95.7424 6.428 96.2064 6.636C96.6704 6.836 97.0384 7.14 97.3104 7.548C97.5824 7.948 97.7184 8.436 97.7184 9.012C97.7184 9.508 97.6064 9.988 97.3824 10.452C97.1664 10.916 96.7984 11.268 96.2784 11.508L98.4624 15H97.1064L95.0544 11.796C94.9664 11.804 94.8744 11.808 94.7784 11.808H93.4944V15H92.3304V6.324H94.6464ZM94.7544 10.68C95.2184 10.68 95.5744 10.596 95.8224 10.428C96.0784 10.252 96.2584 10.04 96.3624 9.792C96.4664 9.536 96.5184 9.292 96.5184 9.06C96.5184 8.828 96.4624 8.588 96.3504 8.34C96.2384 8.092 96.0584 7.88 95.8104 7.704C95.5704 7.528 95.2464 7.44 94.8384 7.44H93.4944V10.68H94.7544ZM100.732 6.324H106.372V7.44H101.896V10.08H105.892V11.196H101.896V13.872H106.54V15H100.732V6.324ZM113.197 13.944L116.365 12.108L113.197 10.26V9.048L118.513 12.108L113.197 15.168V13.944Z" fill="white"/>
</svg>
