<svg width="203" height="41" viewBox="0 0 203 41" fill="none" xmlns="http://www.w3.org/2000/svg">
<rect width="203" height="41" fill="#162D43" fill-opacity="0.7"/>
<path d="M55.32 35L58.48 27.47H58.54L61.7 35H60.58L59.83 33.1H57.05L56.28 35H55.32ZM57.39 32.26H59.5L58.47 29.63L57.39 32.26ZM65.3817 27.77C65.8617 27.77 66.2951 27.8567 66.6817 28.03C67.0684 28.1967 67.3751 28.45 67.6017 28.79C67.8284 29.1233 67.9417 29.53 67.9417 30.01C67.9417 30.4233 67.8484 30.8233 67.6617 31.21C67.4817 31.5967 67.1751 31.89 66.7417 32.09L68.5617 35H67.4317L65.7217 32.33C65.6484 32.3367 65.5717 32.34 65.4917 32.34H64.4217V35H63.4517V27.77H65.3817ZM65.4717 31.4C65.8584 31.4 66.1551 31.33 66.3617 31.19C66.5751 31.0433 66.7251 30.8667 66.8117 30.66C66.8984 30.4467 66.9417 30.2433 66.9417 30.05C66.9417 29.8567 66.8951 29.6567 66.8017 29.45C66.7084 29.2433 66.5584 29.0667 66.3517 28.92C66.1517 28.7733 65.8817 28.7 65.5417 28.7H64.4217V31.4H65.4717ZM75.607 34.46C75.487 34.54 75.3237 34.63 75.117 34.73C74.9104 34.83 74.667 34.9167 74.387 34.99C74.1137 35.0567 73.8137 35.0867 73.487 35.08C72.9204 35.0733 72.4137 34.9733 71.967 34.78C71.5204 34.5867 71.137 34.3233 70.817 33.99C70.5037 33.65 70.2637 33.2633 70.097 32.83C69.9304 32.3967 69.847 31.9333 69.847 31.44C69.847 30.9 69.9337 30.4033 70.107 29.95C70.287 29.49 70.537 29.0933 70.857 28.76C71.177 28.42 71.5537 28.1567 71.987 27.97C72.427 27.7833 72.907 27.69 73.427 27.69C73.8604 27.69 74.2537 27.75 74.607 27.87C74.9604 27.9833 75.2637 28.1167 75.517 28.27L75.127 29.18C74.927 29.0467 74.6837 28.92 74.397 28.8C74.1104 28.68 73.797 28.62 73.457 28.62C73.1037 28.62 72.7704 28.6933 72.457 28.84C72.1437 28.98 71.867 29.1767 71.627 29.43C71.387 29.6767 71.197 29.97 71.057 30.31C70.9237 30.6433 70.857 31.0033 70.857 31.39C70.857 31.91 70.9637 32.38 71.177 32.8C71.397 33.2133 71.7037 33.54 72.097 33.78C72.497 34.02 72.9637 34.14 73.497 34.14C73.8704 34.14 74.197 34.0867 74.477 33.98C74.7637 33.8667 75.0004 33.7367 75.187 33.59L75.607 34.46ZM83.3704 27.77V35H82.3904V31.83H78.6104V35H77.6404V27.77H78.6104V30.9H82.3904V27.77H83.3704ZM85.8529 27.77H86.8229V35H85.8529V27.77ZM88.7698 27.77H93.5698V28.7H91.6298V35H90.6598V28.7H88.7698V27.77ZM95.5201 27.77H100.22V28.7H96.4901V30.9H99.8201V31.83H96.4901V34.06H100.36V35H95.5201V27.77ZM107.763 34.46C107.643 34.54 107.48 34.63 107.273 34.73C107.067 34.83 106.823 34.9167 106.543 34.99C106.27 35.0567 105.97 35.0867 105.643 35.08C105.077 35.0733 104.57 34.9733 104.123 34.78C103.677 34.5867 103.293 34.3233 102.973 33.99C102.66 33.65 102.42 33.2633 102.253 32.83C102.087 32.3967 102.003 31.9333 102.003 31.44C102.003 30.9 102.09 30.4033 102.263 29.95C102.443 29.49 102.693 29.0933 103.013 28.76C103.333 28.42 103.71 28.1567 104.143 27.97C104.583 27.7833 105.063 27.69 105.583 27.69C106.017 27.69 106.41 27.75 106.763 27.87C107.117 27.9833 107.42 28.1167 107.673 28.27L107.283 29.18C107.083 29.0467 106.84 28.92 106.553 28.8C106.267 28.68 105.953 28.62 105.613 28.62C105.26 28.62 104.927 28.6933 104.613 28.84C104.3 28.98 104.023 29.1767 103.783 29.43C103.543 29.6767 103.353 29.97 103.213 30.31C103.08 30.6433 103.013 31.0033 103.013 31.39C103.013 31.91 103.12 32.38 103.333 32.8C103.553 33.2133 103.86 33.54 104.253 33.78C104.653 34.02 105.12 34.14 105.653 34.14C106.027 34.14 106.353 34.0867 106.633 33.98C106.92 33.8667 107.157 33.7367 107.343 33.59L107.763 34.46ZM109.267 27.77H114.067V28.7H112.127V35H111.157V28.7H109.267V27.77ZM116.897 32.44C116.897 32.76 116.974 33.05 117.127 33.31C117.28 33.5633 117.487 33.7667 117.747 33.92C118.014 34.0667 118.307 34.14 118.627 34.14C118.967 34.14 119.267 34.0667 119.527 33.92C119.794 33.7667 120.004 33.5633 120.157 33.31C120.317 33.05 120.397 32.76 120.397 32.44V27.77H121.347V32.47C121.347 32.9967 121.224 33.4567 120.977 33.85C120.737 34.2433 120.41 34.5467 119.997 34.76C119.59 34.9733 119.134 35.08 118.627 35.08C118.12 35.08 117.664 34.9733 117.257 34.76C116.85 34.5467 116.527 34.2433 116.287 33.85C116.047 33.4567 115.927 32.9967 115.927 32.47V27.77H116.897V32.44ZM125.671 27.77C126.151 27.77 126.585 27.8567 126.971 28.03C127.358 28.1967 127.665 28.45 127.891 28.79C128.118 29.1233 128.231 29.53 128.231 30.01C128.231 30.4233 128.138 30.8233 127.951 31.21C127.771 31.5967 127.465 31.89 127.031 32.09L128.851 35H127.721L126.011 32.33C125.938 32.3367 125.861 32.34 125.781 32.34H124.711V35H123.741V27.77H125.671ZM125.761 31.4C126.148 31.4 126.445 31.33 126.651 31.19C126.865 31.0433 127.015 30.8667 127.101 30.66C127.188 30.4467 127.231 30.2433 127.231 30.05C127.231 29.8567 127.185 29.6567 127.091 29.45C126.998 29.2433 126.848 29.0667 126.641 28.92C126.441 28.7733 126.171 28.7 125.831 28.7H124.711V31.4H125.761ZM130.743 27.77H135.443V28.7H131.713V30.9H135.043V31.83H131.713V34.06H135.583V35H130.743V27.77ZM141.13 34.12L143.77 32.59L141.13 31.05V30.04L145.56 32.59L141.13 35.14V34.12Z" fill="white"/>
<path d="M75.992 10.832H78.36V11.984H75.992V10.832ZM78.36 14.112H75.992V12.928H78.36V14.112ZM74.84 14.112H71.464V15.072H74.84V16.256H71.384V17.168H74.84V18.432H70.648V19.408H74.84V21.104H75.992V19.408H80.36V18.432H75.992V17.168H79.672V16.256H75.992V15.072H79.512V12.928H80.712V11.984H79.512V9.888H75.992V8.736H74.84V9.888H71.576V10.832H74.84V11.984H70.44V12.928H74.84V14.112ZM70.136 14.128L69.912 14.16H68.264C69 12.64 69.784 11.024 70.296 9.808L69.48 9.568L69.288 9.632H66.12V10.688H68.696C68.056 12.096 67.128 14.032 66.328 15.536L67.416 15.84L67.736 15.216H69.592C69.4 16.624 69.096 17.84 68.68 18.864C68.248 18.224 67.896 17.44 67.608 16.48L66.68 16.832C67.08 18.128 67.576 19.152 68.168 19.952C67.592 21.024 66.856 21.84 65.992 22.416C66.264 22.576 66.712 23.008 66.888 23.248C67.704 22.672 68.408 21.888 68.984 20.864C70.664 22.416 72.968 22.8 75.864 22.8H80.328C80.408 22.448 80.632 21.92 80.824 21.632C79.992 21.648 76.552 21.648 75.896 21.648C73.24 21.648 71.064 21.312 69.512 19.84C70.136 18.384 70.584 16.544 70.824 14.304L70.136 14.128ZM87.48 10.816C87.784 11.36 88.088 11.984 88.216 12.4L89.192 12.112C89.08 11.76 88.84 11.264 88.568 10.816H91.576C91.24 11.184 90.888 11.52 90.504 11.808C90.776 11.952 91.304 12.224 91.528 12.4C92.04 11.968 92.536 11.424 93 10.816H94.264C94.68 11.36 95.112 11.984 95.304 12.432L96.312 12.08C96.152 11.728 95.832 11.248 95.496 10.816H99.064V9.84H93.64C93.816 9.504 93.992 9.168 94.136 8.816L93 8.544C92.68 9.344 92.184 10.144 91.592 10.8V9.84H87.384C87.56 9.504 87.72 9.168 87.864 8.832L86.76 8.544C86.28 9.76 85.416 10.992 84.472 11.808C84.744 11.968 85.208 12.272 85.432 12.464C85.896 12.016 86.36 11.44 86.792 10.816H87.48ZM84.792 17.232C86.36 16.96 88.504 16.624 90.584 16.272L90.536 15.344C89.768 15.472 89 15.584 88.264 15.696V13.728H90.52V12.864H84.92V13.728H87.176V15.872C86.216 16.016 85.32 16.144 84.616 16.24L84.792 17.232ZM98.92 19.36V18.384H92.36V17.168H91.24C92.264 16.336 92.536 15.328 92.536 14.384V13.6H95.928V15.936C95.928 16.784 95.992 17.04 96.216 17.248C96.424 17.44 96.776 17.52 97.096 17.52H97.832C98.072 17.52 98.392 17.488 98.552 17.376C98.76 17.28 98.92 17.104 99 16.864C99.096 16.64 99.144 15.968 99.16 15.36C98.888 15.28 98.536 15.136 98.344 14.944C98.328 15.536 98.312 15.984 98.28 16.176C98.232 16.368 98.184 16.48 98.104 16.512C98.04 16.56 97.912 16.56 97.784 16.56H97.368C97.24 16.56 97.16 16.544 97.112 16.512C97.032 16.448 97.032 16.272 97.032 15.984V12.752H91.432V14.336C91.432 15.36 91.064 16.432 88.936 17.216C89.144 17.376 89.56 17.792 89.704 18.032C90.344 17.776 90.84 17.504 91.224 17.184V18.384H84.728V19.36H90.216C88.776 20.48 86.456 21.424 84.392 21.856C84.648 22.096 84.984 22.512 85.144 22.816C87.256 22.288 89.672 21.136 91.224 19.76V23.184H92.36V19.776C93.896 21.12 96.328 22.24 98.456 22.768C98.616 22.464 98.968 22 99.224 21.76C97.128 21.36 94.76 20.448 93.288 19.36H98.92ZM92.744 14.896C93.528 15.376 94.472 16.112 94.936 16.624L95.64 15.904C95.176 15.408 94.216 14.72 93.416 14.272L92.744 14.896ZM108.312 9.168H103.704V10.128H108.312V9.168ZM108.904 11.264H102.872V12.24H108.904V11.264ZM107.304 18.656V21.344H104.632V18.656H107.304ZM108.344 17.68H103.592V23.04H104.632V22.304H108.344V17.68ZM103.624 16.496H108.36V15.536H103.624V16.496ZM103.624 14.368H108.36V13.424H103.624V14.368ZM111.288 10.176H114.024V13.024C114.024 14.16 114.312 14.464 115.288 14.464H116.392C117.24 14.464 117.528 14 117.624 12.128C117.32 12.064 116.856 11.888 116.632 11.696C116.6 13.232 116.536 13.44 116.248 13.44H115.448C115.192 13.44 115.144 13.376 115.144 13.024V9.12H110.152V11.04C110.152 12.144 109.912 13.472 108.376 14.448C108.616 14.608 109.064 15.024 109.24 15.232C110.936 14.112 111.288 12.432 111.288 11.056V10.176ZM115.896 15.44L115.688 15.488H109.112V16.576H115.16C114.68 17.808 113.96 18.848 113.064 19.696C112.168 18.816 111.464 17.776 111 16.608L109.944 16.928C110.488 18.272 111.24 19.44 112.184 20.416C111.064 21.248 109.768 21.824 108.408 22.176C108.632 22.416 108.936 22.928 109.048 23.216C110.504 22.784 111.88 22.144 113.064 21.232C114.152 22.112 115.416 22.768 116.872 23.2C117.032 22.912 117.384 22.432 117.64 22.192C116.232 21.84 115 21.248 113.96 20.464C115.176 19.264 116.12 17.712 116.664 15.744L115.896 15.44ZM126.984 9.168H122.104V10.128H126.984V9.168ZM127.576 11.264H121.272V12.24H127.576V11.264ZM125.864 18.656V21.344H123.064V18.656H125.864ZM126.936 17.68H122.008V23.04H123.064V22.304H126.936V17.68ZM122.024 16.496H126.984V15.536H122.024V16.496ZM122.024 14.368H126.984V13.424H122.024V14.368ZM136.072 14.048H132.488V8.656H131.304V14.048H127.56V15.216H131.304V23.216H132.488V15.216H136.072V14.048Z" fill="white"/>
</svg>
