<svg width="219" height="39" viewBox="0 0 219 39" fill="none" xmlns="http://www.w3.org/2000/svg">
<path d="M65 38L205.265 37.9996L217 25.7216L205.265 12" stroke="#162D43" stroke-width="2"/>
<path d="M40.9995 16.6611H43.7749V17.8574H40.9995V21.002H39.728V17.8574H36.9526V16.6611H39.728V13.7559H40.9995V16.6611ZM57.432 18.8418C57.3089 19.8945 56.9193 20.708 56.263 21.2822C55.6113 21.8519 54.7432 22.1367 53.6586 22.1367C52.4828 22.1367 51.5394 21.7152 50.8285 20.8721C50.1221 20.029 49.7689 18.901 49.7689 17.4883V16.5312C49.7689 15.6061 49.933 14.7926 50.2611 14.0908C50.5938 13.389 51.0632 12.8512 51.6693 12.4775C52.2754 12.0993 52.9772 11.9102 53.7748 11.9102C54.8321 11.9102 55.6797 12.2064 56.3177 12.7988C56.9558 13.3867 57.3272 14.2025 57.432 15.2461H56.1127C55.9987 14.4531 55.7503 13.8789 55.3675 13.5234C54.9893 13.168 54.4584 12.9902 53.7748 12.9902C52.9362 12.9902 52.2777 13.3001 51.7992 13.9199C51.3252 14.5397 51.0882 15.4215 51.0882 16.5654V17.5293C51.0882 18.6094 51.3138 19.4684 51.765 20.1064C52.2162 20.7445 52.8474 21.0635 53.6586 21.0635C54.3877 21.0635 54.946 20.8994 55.3334 20.5713C55.7253 20.2386 55.985 19.6621 56.1127 18.8418H57.432ZM67.4461 17.3447C67.4461 18.32 67.282 19.1722 66.9539 19.9014C66.6258 20.626 66.1609 21.1797 65.5594 21.5625C64.9578 21.9453 64.256 22.1367 63.4539 22.1367C62.67 22.1367 61.9751 21.9453 61.3689 21.5625C60.7628 21.1751 60.2911 20.626 59.9539 19.915C59.6212 19.1995 59.4503 18.3724 59.4412 17.4336V16.7158C59.4412 15.7588 59.6075 14.9134 59.9402 14.1797C60.2729 13.446 60.7423 12.8854 61.3484 12.498C61.9591 12.1061 62.6564 11.9102 63.4402 11.9102C64.2378 11.9102 64.9396 12.1038 65.5457 12.4912C66.1564 12.874 66.6258 13.4323 66.9539 14.166C67.282 14.8952 67.4461 15.7451 67.4461 16.7158V17.3447ZM66.1404 16.7021C66.1404 15.5218 65.9034 14.6172 65.4295 13.9883C64.9555 13.3548 64.2924 13.0381 63.4402 13.0381C62.6108 13.0381 61.9568 13.3548 61.4783 13.9883C61.0044 14.6172 60.7605 15.4922 60.7469 16.6133V17.3447C60.7469 18.4886 60.9861 19.3887 61.4646 20.0449C61.9477 20.6966 62.6108 21.0225 63.4539 21.0225C64.3016 21.0225 64.9578 20.7148 65.4227 20.0996C65.8875 19.4798 66.1268 18.5934 66.1404 17.4404V16.7021ZM71.6702 12.0469L74.9241 20.168L78.178 12.0469H79.8801V22H78.5676V18.124L78.6907 13.9404L75.4231 22H74.4182L71.1575 13.9609L71.2873 18.124V22H69.9748V12.0469H71.6702ZM84.07 18.1035V22H82.7575V12.0469H86.4284C87.5176 12.0469 88.3698 12.3249 88.985 12.8809C89.6048 13.4368 89.9147 14.1729 89.9147 15.0889C89.9147 16.055 89.6117 16.8001 89.0055 17.3242C88.404 17.8438 87.5404 18.1035 86.4147 18.1035H84.07ZM84.07 17.0303H86.4284C87.1302 17.0303 87.668 16.8662 88.0417 16.5381C88.4154 16.2054 88.6022 15.7269 88.6022 15.1025C88.6022 14.5101 88.4154 14.0361 88.0417 13.6807C87.668 13.3252 87.1553 13.1406 86.5036 13.127H84.07V17.0303ZM96.7023 19.4023H92.5323L91.5958 22H90.2423L94.0431 12.0469H95.1915L98.9991 22H97.6525L96.7023 19.4023ZM92.9288 18.3223H96.3126L94.6173 13.667L92.9288 18.3223ZM108.548 22H107.229L102.218 14.3301V22H100.899V12.0469H102.218L107.243 19.751V12.0469H108.548V22ZM114.283 17.0439L116.881 12.0469H118.371L114.939 18.2881V22H113.627V18.2881L110.195 12.0469H111.699L114.283 17.0439ZM125.561 18.1035V22H124.249V12.0469H127.92C129.009 12.0469 129.861 12.3249 130.476 12.8809C131.096 13.4368 131.406 14.1729 131.406 15.0889C131.406 16.055 131.103 16.8001 130.497 17.3242C129.895 17.8438 129.032 18.1035 127.906 18.1035H125.561ZM125.561 17.0303H127.92C128.622 17.0303 129.159 16.8662 129.533 16.5381C129.907 16.2054 130.094 15.7269 130.094 15.1025C130.094 14.5101 129.907 14.0361 129.533 13.6807C129.159 13.3252 128.647 13.1406 127.995 13.127H125.561V17.0303ZM137.291 17.9736H134.953V22H133.634V12.0469H136.929C138.05 12.0469 138.911 12.3021 139.513 12.8125C140.119 13.3229 140.422 14.0658 140.422 15.041C140.422 15.6608 140.254 16.2008 139.916 16.6611C139.584 17.1214 139.119 17.4655 138.522 17.6934L140.86 21.918V22H139.451L137.291 17.9736ZM134.953 16.9004H136.97C137.622 16.9004 138.139 16.7318 138.522 16.3945C138.909 16.0573 139.103 15.6061 139.103 15.041C139.103 14.4258 138.918 13.9541 138.549 13.626C138.185 13.2979 137.656 13.1315 136.963 13.127H134.953V16.9004ZM150.484 17.3447C150.484 18.32 150.32 19.1722 149.992 19.9014C149.664 20.626 149.199 21.1797 148.597 21.5625C147.996 21.9453 147.294 22.1367 146.492 22.1367C145.708 22.1367 145.013 21.9453 144.407 21.5625C143.801 21.1751 143.329 20.626 142.992 19.915C142.659 19.1995 142.488 18.3724 142.479 17.4336V16.7158C142.479 15.7588 142.646 14.9134 142.978 14.1797C143.311 13.446 143.78 12.8854 144.386 12.498C144.997 12.1061 145.694 11.9102 146.478 11.9102C147.276 11.9102 147.978 12.1038 148.584 12.4912C149.194 12.874 149.664 13.4323 149.992 14.166C150.32 14.8952 150.484 15.7451 150.484 16.7158V17.3447ZM149.178 16.7021C149.178 15.5218 148.941 14.6172 148.468 13.9883C147.994 13.3548 147.33 13.0381 146.478 13.0381C145.649 13.0381 144.995 13.3548 144.516 13.9883C144.042 14.6172 143.799 15.4922 143.785 16.6133V17.3447C143.785 18.4886 144.024 19.3887 144.503 20.0449C144.986 20.6966 145.649 21.0225 146.492 21.0225C147.34 21.0225 147.996 20.7148 148.461 20.0996C148.926 19.4798 149.165 18.5934 149.178 17.4404V16.7021ZM158.502 17.6045H154.325V22H153.013V12.0469H159.179V13.127H154.325V16.5312H158.502V17.6045ZM162.719 22H161.407V12.0469H162.719V22ZM167.005 20.9268H171.722V22H165.686V12.0469H167.005V20.9268ZM179.405 17.3994H175.091V20.9268H180.102V22H173.779V12.0469H180.034V13.127H175.091V16.3262H179.405V17.3994Z" fill="#162D43"/>
</svg>
