<svg width="138" height="35" viewBox="0 0 138 35" fill="none" xmlns="http://www.w3.org/2000/svg">
<path d="M138 34L12.5 33.9998L1.99999 26.4441L12.5 18" stroke="#182F45" stroke-width="2"/>
<path d="M58.5721 18H57.2528V13.3994H52.2352V18H50.9227V8.04688H52.2352V12.3262H57.2528V8.04688H58.5721V18ZM69.1194 13.3447C69.1194 14.32 68.9554 15.1722 68.6272 15.9014C68.2991 16.626 67.8343 17.1797 67.2327 17.5625C66.6311 17.9453 65.9293 18.1367 65.1272 18.1367C64.3434 18.1367 63.6484 17.9453 63.0423 17.5625C62.4361 17.1751 61.9645 16.626 61.6272 15.915C61.2945 15.1995 61.1236 14.3724 61.1145 13.4336V12.7158C61.1145 11.7588 61.2809 10.9134 61.6136 10.1797C61.9462 9.44596 62.4156 8.88542 63.0218 8.49805C63.6324 8.10612 64.3297 7.91016 65.1136 7.91016C65.9111 7.91016 66.6129 8.10384 67.219 8.49121C67.8297 8.87402 68.2991 9.43229 68.6272 10.166C68.9554 10.8952 69.1194 11.7451 69.1194 12.7158V13.3447ZM67.8138 12.7021C67.8138 11.5218 67.5768 10.6172 67.1028 9.98828C66.6289 9.35482 65.9658 9.03809 65.1136 9.03809C64.2841 9.03809 63.6302 9.35482 63.1516 9.98828C62.6777 10.6172 62.4339 11.4922 62.4202 12.6133V13.3447C62.4202 14.4886 62.6595 15.3887 63.138 16.0449C63.621 16.6966 64.2841 17.0225 65.1272 17.0225C65.9749 17.0225 66.6311 16.7148 67.096 16.0996C67.5608 15.4798 67.8001 14.5934 67.8138 13.4404V12.7021ZM73.3435 8.04688L76.5974 16.168L79.8513 8.04688H81.5534V18H80.2409V14.124L80.364 9.94043L77.0964 18H76.0915L72.8308 9.96094L72.9607 14.124V18H71.6482V8.04688H73.3435ZM90.0568 13.3994H85.7433V16.9268H90.7541V18H84.4308V8.04688H90.6857V9.12695H85.7433V12.3262H90.0568V13.3994Z" fill="#182F45"/>
</svg>
