<svg width="203" height="41" viewBox="0 0 203 41" fill="none" xmlns="http://www.w3.org/2000/svg">
<rect width="203" height="41" fill="#162D43" fill-opacity="0.7"/>
<path d="M64.04 27.77H65.01V35H64.04V27.77ZM73.7569 35.23L68.4469 29.85L68.4669 35H67.4869V27.55H67.5369L72.8369 33.01L72.8169 27.77H73.7869V35.23H73.7569ZM80.0058 29.06C79.7591 28.9333 79.4891 28.8233 79.1958 28.73C78.9024 28.6367 78.6191 28.59 78.3458 28.59C77.9524 28.59 77.6391 28.68 77.4058 28.86C77.1791 29.04 77.0658 29.2833 77.0658 29.59C77.0658 29.81 77.1391 29.9967 77.2858 30.15C77.4391 30.3033 77.6324 30.44 77.8658 30.56C78.1058 30.6733 78.3591 30.78 78.6258 30.88C78.9258 30.9933 79.2158 31.13 79.4958 31.29C79.7758 31.45 80.0058 31.6667 80.1858 31.94C80.3724 32.2067 80.4658 32.5667 80.4658 33.02C80.4658 33.4067 80.3691 33.7567 80.1758 34.07C79.9824 34.3767 79.7091 34.6233 79.3558 34.81C79.0024 34.99 78.5824 35.08 78.0958 35.08C77.6158 35.08 77.1691 35.0033 76.7558 34.85C76.3491 34.6967 76.0024 34.52 75.7158 34.32L76.1458 33.55C76.3791 33.73 76.6658 33.8867 77.0058 34.02C77.3524 34.1533 77.6824 34.22 77.9958 34.22C78.2291 34.22 78.4558 34.18 78.6758 34.1C78.9024 34.02 79.0891 33.8933 79.2358 33.72C79.3824 33.54 79.4558 33.31 79.4558 33.03C79.4558 32.79 79.3891 32.5867 79.2558 32.42C79.1224 32.2533 78.9491 32.1133 78.7358 32C78.5291 31.88 78.3024 31.7733 78.0558 31.68C77.8291 31.6 77.5991 31.5067 77.3658 31.4C77.1324 31.2933 76.9158 31.1667 76.7158 31.02C76.5224 30.8667 76.3658 30.68 76.2458 30.46C76.1258 30.24 76.0658 29.9733 76.0658 29.66C76.0658 29.28 76.1558 28.95 76.3358 28.67C76.5224 28.3833 76.7758 28.16 77.0958 28C77.4158 27.8333 77.7858 27.7433 78.2058 27.73C78.6658 27.73 79.0724 27.7867 79.4258 27.9C79.7858 28.0133 80.1024 28.15 80.3758 28.31L80.0058 29.06ZM84.4261 27.77C85.2061 27.77 85.8194 27.9667 86.2661 28.36C86.7128 28.7533 86.9361 29.3033 86.9361 30.01C86.9361 30.2967 86.8928 30.58 86.8061 30.86C86.7194 31.1333 86.5794 31.3833 86.3861 31.61C86.1994 31.83 85.9528 32.01 85.6461 32.15C85.3394 32.2833 84.9661 32.35 84.5261 32.35H83.4561V35H82.4861V27.77H84.4261ZM84.5261 31.4C84.8061 31.4 85.0394 31.3567 85.2261 31.27C85.4128 31.1767 85.5594 31.0567 85.6661 30.91C85.7794 30.7633 85.8594 30.6133 85.9061 30.46C85.9528 30.3 85.9761 30.1567 85.9761 30.03C85.9761 29.8367 85.9294 29.6367 85.8361 29.43C85.7494 29.2233 85.6028 29.05 85.3961 28.91C85.1961 28.77 84.9228 28.7 84.5761 28.7H83.4561V31.4H84.5261ZM88.8334 27.77H93.5334V28.7H89.8034V30.9H93.1334V31.83H89.8034V34.06H93.6734V35H88.8334V27.77ZM101.077 34.46C100.957 34.54 100.793 34.63 100.587 34.73C100.38 34.83 100.137 34.9167 99.8566 34.99C99.5832 35.0567 99.2832 35.0867 98.9566 35.08C98.3899 35.0733 97.8832 34.9733 97.4366 34.78C96.9899 34.5867 96.6066 34.3233 96.2866 33.99C95.9732 33.65 95.7332 33.2633 95.5666 32.83C95.3999 32.3967 95.3166 31.9333 95.3166 31.44C95.3166 30.9 95.4032 30.4033 95.5766 29.95C95.7566 29.49 96.0066 29.0933 96.3266 28.76C96.6466 28.42 97.0232 28.1567 97.4566 27.97C97.8966 27.7833 98.3766 27.69 98.8966 27.69C99.3299 27.69 99.7232 27.75 100.077 27.87C100.43 27.9833 100.733 28.1167 100.987 28.27L100.597 29.18C100.397 29.0467 100.153 28.92 99.8666 28.8C99.5799 28.68 99.2666 28.62 98.9266 28.62C98.5732 28.62 98.2399 28.6933 97.9266 28.84C97.6132 28.98 97.3366 29.1767 97.0966 29.43C96.8566 29.6767 96.6666 29.97 96.5266 30.31C96.3932 30.6433 96.3266 31.0033 96.3266 31.39C96.3266 31.91 96.4332 32.38 96.6466 32.8C96.8666 33.2133 97.1732 33.54 97.5666 33.78C97.9666 34.02 98.4332 34.14 98.9666 34.14C99.3399 34.14 99.6666 34.0867 99.9466 33.98C100.233 33.8667 100.47 33.7367 100.657 33.59L101.077 34.46ZM102.58 27.77H107.38V28.7H105.44V35H104.47V28.7H102.58V27.77ZM109.33 27.77H110.3V35H109.33V27.77ZM112.327 31.39C112.327 30.89 112.42 30.4167 112.607 29.97C112.8 29.5233 113.067 29.13 113.407 28.79C113.747 28.45 114.137 28.1833 114.577 27.99C115.024 27.79 115.5 27.69 116.007 27.69C116.514 27.69 116.99 27.79 117.437 27.99C117.89 28.1833 118.287 28.45 118.627 28.79C118.967 29.13 119.234 29.5233 119.427 29.97C119.62 30.4167 119.717 30.89 119.717 31.39C119.717 31.9033 119.62 32.3833 119.427 32.83C119.234 33.27 118.967 33.66 118.627 34C118.287 34.34 117.89 34.6067 117.437 34.8C116.99 34.9867 116.514 35.08 116.007 35.08C115.5 35.08 115.024 34.9867 114.577 34.8C114.137 34.6133 113.747 34.3533 113.407 34.02C113.067 33.6867 112.8 33.2967 112.607 32.85C112.42 32.3967 112.327 31.91 112.327 31.39ZM113.327 31.4C113.327 31.78 113.397 32.1367 113.537 32.47C113.677 32.7967 113.87 33.0867 114.117 33.34C114.364 33.5933 114.65 33.79 114.977 33.93C115.304 34.07 115.657 34.14 116.037 34.14C116.537 34.14 116.987 34.02 117.387 33.78C117.794 33.5333 118.117 33.2033 118.357 32.79C118.597 32.37 118.717 31.9033 118.717 31.39C118.717 31.01 118.647 30.6533 118.507 30.32C118.367 29.98 118.174 29.6833 117.927 29.43C117.68 29.1767 117.394 28.98 117.067 28.84C116.74 28.6933 116.39 28.62 116.017 28.62C115.51 28.62 115.054 28.7467 114.647 29C114.24 29.2533 113.917 29.59 113.677 30.01C113.444 30.43 113.327 30.8933 113.327 31.4ZM128.021 35.23L122.711 29.85L122.731 35H121.751V27.55H121.801L127.101 33.01L127.081 27.77H128.051V35.23H128.021ZM133.984 34.12L136.624 32.59L133.984 31.05V30.04L138.414 32.59L133.984 35.14V34.12Z" fill="white"/>
<path d="M34.4189 10.772H30.9749V11.612H34.4189V10.772ZM34.8109 12.606H30.3169V13.46H34.8109V12.606ZM34.4469 14.496H30.8909V15.322H34.4469V14.496ZM30.8909 17.184H34.4469V16.344H30.8909V17.184ZM33.5789 19.074V21.412H31.7169V19.074H33.5789ZM34.4469 22.252V18.22H30.8769V22.91H31.7169V22.252H34.4469ZM37.0649 15.392V16.19H41.1669V15.392H39.4729V14.048H40.9569V13.25H39.4729V12.046H38.6189V13.25H37.1769V14.048H38.6189V15.392H37.0649ZM40.0749 18.066V20.068H38.0589V18.066H40.0749ZM40.8729 20.866V17.268H37.2609V21.412H38.0589V20.866H40.8729ZM42.6929 10.87H35.5109V15.854C35.5109 17.912 35.4269 20.642 34.3349 22.574C34.5729 22.686 34.9929 22.98 35.1469 23.148C36.3089 21.104 36.4629 18.024 36.4629 15.854V11.78H41.7409V21.748C41.7409 21.986 41.6709 22.042 41.4609 22.042C41.2229 22.056 40.4949 22.07 39.7529 22.028C39.8789 22.308 40.0189 22.784 40.0609 23.05C41.0969 23.05 41.7969 23.036 42.1749 22.868C42.5669 22.7 42.6929 22.364 42.6929 21.748V10.87ZM48.1669 20.81H53.8369V21.832H48.1669V20.81ZM53.8369 17.254V18.248H48.1669V17.254H53.8369ZM53.8369 20.04H48.1669V19.018H53.8369V20.04ZM54.8869 16.372H47.1589V21.832H44.8069V22.77H57.2249V21.832H54.8869V16.372ZM57.1829 12.97V12.046H51.4709V10.282H50.4629V12.046H44.8629V12.97H49.3429C48.1389 14.3 46.2769 15.49 44.5549 16.078C44.7789 16.274 45.0729 16.652 45.2129 16.89C47.1169 16.134 49.1889 14.664 50.4629 12.998V15.938H51.4709V13.012C52.7449 14.636 54.8449 16.078 56.7769 16.792C56.9169 16.54 57.2249 16.148 57.4629 15.966C55.6849 15.392 53.7949 14.258 52.5629 12.97H57.1829ZM65.2889 15.196C64.4629 15.196 63.8049 15.854 63.8049 16.68C63.8049 17.506 64.4629 18.164 65.2889 18.164C66.1149 18.164 66.7729 17.506 66.7729 16.68C66.7729 15.854 66.1149 15.196 65.2889 15.196ZM73.7729 16.946L74.3329 18.038C76.2789 17.436 78.1969 16.596 79.6669 15.756V20.936C79.6669 21.468 79.6249 22.168 79.5829 22.434H80.9549C80.8989 22.154 80.8709 21.468 80.8709 20.936V15.028C82.2989 14.076 83.5869 13.012 84.6509 11.906L83.7129 11.038C82.7469 12.2 81.3469 13.418 79.8909 14.328C78.3369 15.308 76.1949 16.288 73.7729 16.946ZM90.0269 11.738L89.2289 12.592C90.2649 13.292 92.0149 14.79 92.7149 15.518L93.5969 14.636C92.8129 13.852 91.0209 12.396 90.0269 11.738ZM88.8229 21.118L89.5649 22.266C91.9029 21.832 93.6669 20.978 95.0669 20.096C97.1809 18.766 98.8189 16.862 99.7709 15.112L99.0989 13.922C98.2869 15.644 96.5789 17.716 94.4229 19.074C93.0929 19.9 91.2729 20.754 88.8229 21.118ZM112.055 12.634L111.341 12.088C111.117 12.158 110.753 12.2 110.291 12.2H104.887C104.467 12.2 103.669 12.144 103.473 12.116V13.39C103.627 13.376 104.397 13.32 104.887 13.32H110.347C109.997 14.482 108.975 16.134 108.023 17.212C106.581 18.822 104.509 20.488 102.255 21.37L103.151 22.308C105.223 21.37 107.113 19.83 108.611 18.22C110.039 19.494 111.523 21.146 112.461 22.378L113.441 21.538C112.531 20.432 110.823 18.612 109.353 17.352C110.347 16.092 111.229 14.454 111.705 13.25C111.789 13.054 111.971 12.746 112.055 12.634ZM124.007 13.6C124.007 13.026 124.469 12.578 125.043 12.578C125.603 12.578 126.065 13.026 126.065 13.6C126.065 14.16 125.603 14.622 125.043 14.622C124.469 14.622 124.007 14.16 124.007 13.6ZM123.335 13.6C123.335 14.538 124.105 15.294 125.043 15.294C125.981 15.294 126.737 14.538 126.737 13.6C126.737 12.662 125.981 11.892 125.043 11.892C124.105 11.892 123.335 12.662 123.335 13.6ZM114.893 18.318L115.943 19.382C116.153 19.088 116.461 18.654 116.741 18.304C117.385 17.52 118.547 15.994 119.219 15.168C119.695 14.594 119.961 14.538 120.507 15.07C121.095 15.644 122.397 17.03 123.209 17.954C124.105 18.976 125.337 20.404 126.331 21.608L127.297 20.586C126.219 19.438 124.819 17.912 123.881 16.918C123.055 16.036 121.865 14.79 121.011 13.978C120.059 13.082 119.401 13.236 118.645 14.118C117.763 15.154 116.545 16.708 115.887 17.38C115.509 17.758 115.257 18.01 114.893 18.318ZM135.949 11.122L134.647 10.702C134.563 11.066 134.353 11.57 134.213 11.808C133.611 13.068 132.225 15.098 129.817 16.54L130.783 17.268C132.309 16.246 133.485 15 134.339 13.824H139.071C138.777 15.098 137.923 16.904 136.831 18.192C135.557 19.676 133.807 20.95 131.245 21.706L132.253 22.616C134.885 21.65 136.551 20.362 137.825 18.808C139.071 17.296 139.939 15.406 140.317 13.992C140.387 13.768 140.527 13.446 140.639 13.25L139.701 12.676C139.477 12.774 139.169 12.816 138.791 12.816H134.997C135.123 12.62 135.235 12.424 135.333 12.228C135.459 11.962 135.711 11.486 135.949 11.122ZM146.925 11.248L146.295 12.186C147.121 12.662 148.633 13.67 149.305 14.174L149.963 13.222C149.361 12.774 147.751 11.71 146.925 11.248ZM144.825 21.258L145.469 22.392C146.771 22.126 148.703 21.468 150.117 20.656C152.343 19.34 154.289 17.534 155.493 15.644L154.821 14.496C153.687 16.47 151.839 18.29 149.515 19.62C148.101 20.432 146.365 20.992 144.825 21.258ZM144.811 14.398L144.195 15.35C145.035 15.784 146.561 16.764 147.247 17.268L147.891 16.288C147.275 15.84 145.637 14.846 144.811 14.398ZM160.113 14.314V15.406C160.365 15.392 161.177 15.364 161.541 15.364H166.735V17.688H161.667C161.191 17.688 160.687 17.66 160.421 17.646V18.724C160.701 18.71 161.191 18.696 161.681 18.696H166.735V21.188H161.093C160.617 21.188 160.169 21.16 159.945 21.132V22.252C160.169 22.252 160.659 22.224 161.107 22.224H166.735C166.735 22.448 166.735 22.658 166.721 22.784H167.827C167.813 22.588 167.799 22.252 167.799 22.028V15.056C167.799 14.79 167.799 14.496 167.813 14.342C167.631 14.356 167.267 14.37 166.959 14.37H161.541C161.177 14.37 160.379 14.342 160.113 14.314ZM174.449 11.738L173.651 12.592C174.687 13.292 176.437 14.79 177.137 15.518L178.019 14.636C177.235 13.852 175.443 12.396 174.449 11.738ZM173.245 21.118L173.987 22.266C176.325 21.832 178.089 20.978 179.489 20.096C181.603 18.766 183.241 16.862 184.193 15.112L183.521 13.922C182.709 15.644 181.001 17.716 178.845 19.074C177.515 19.9 175.695 20.754 173.245 21.118Z" fill="white"/>
</svg>
