<svg width="124" height="22" viewBox="0 0 124 22" fill="none" xmlns="http://www.w3.org/2000/svg">
<rect width="124" height="22" fill="#182F45" fill-opacity="0.5"/>
<path d="M20.1764 6.324H21.3404V15H20.1764V6.324ZM31.8366 15.276L25.4646 8.82L25.4886 15H24.3126V6.06H24.3726L30.7326 12.612L30.7086 6.324H31.8726V15.276H31.8366ZM39.3353 7.872C39.0393 7.72 38.7153 7.588 38.3633 7.476C38.0113 7.364 37.6713 7.308 37.3433 7.308C36.8713 7.308 36.4953 7.416 36.2153 7.632C35.9433 7.848 35.8073 8.14 35.8073 8.508C35.8073 8.772 35.8953 8.996 36.0713 9.18C36.2553 9.364 36.4873 9.528 36.7673 9.672C37.0553 9.808 37.3593 9.936 37.6793 10.056C38.0393 10.192 38.3873 10.356 38.7233 10.548C39.0593 10.74 39.3353 11 39.5513 11.328C39.7753 11.648 39.8873 12.08 39.8873 12.624C39.8873 13.088 39.7713 13.508 39.5393 13.884C39.3073 14.252 38.9793 14.548 38.5553 14.772C38.1313 14.988 37.6273 15.096 37.0433 15.096C36.4673 15.096 35.9313 15.004 35.4353 14.82C34.9473 14.636 34.5313 14.424 34.1873 14.184L34.7033 13.26C34.9833 13.476 35.3273 13.664 35.7353 13.824C36.1513 13.984 36.5473 14.064 36.9233 14.064C37.2033 14.064 37.4753 14.016 37.7393 13.92C38.0113 13.824 38.2353 13.672 38.4113 13.464C38.5873 13.248 38.6753 12.972 38.6753 12.636C38.6753 12.348 38.5953 12.104 38.4353 11.904C38.2753 11.704 38.0673 11.536 37.8113 11.4C37.5633 11.256 37.2913 11.128 36.9953 11.016C36.7233 10.92 36.4473 10.808 36.1673 10.68C35.8873 10.552 35.6273 10.4 35.3873 10.224C35.1553 10.04 34.9673 9.816 34.8233 9.552C34.6793 9.288 34.6073 8.968 34.6073 8.592C34.6073 8.136 34.7153 7.74 34.9313 7.404C35.1553 7.06 35.4593 6.792 35.8433 6.6C36.2273 6.4 36.6713 6.292 37.1753 6.276C37.7273 6.276 38.2153 6.344 38.6393 6.48C39.0713 6.616 39.4513 6.78 39.7793 6.972L39.3353 7.872ZM44.6397 6.324C45.5757 6.324 46.3117 6.56 46.8477 7.032C47.3837 7.504 47.6517 8.164 47.6517 9.012C47.6517 9.356 47.5997 9.696 47.4957 10.032C47.3917 10.36 47.2237 10.66 46.9917 10.932C46.7677 11.196 46.4717 11.412 46.1037 11.58C45.7357 11.74 45.2877 11.82 44.7597 11.82H43.4757V15H42.3117V6.324H44.6397ZM44.7597 10.68C45.0957 10.68 45.3757 10.628 45.5997 10.524C45.8237 10.412 45.9997 10.268 46.1277 10.092C46.2637 9.916 46.3597 9.736 46.4157 9.552C46.4717 9.36 46.4997 9.188 46.4997 9.036C46.4997 8.804 46.4437 8.564 46.3317 8.316C46.2277 8.068 46.0517 7.86 45.8037 7.692C45.5637 7.524 45.2357 7.44 44.8197 7.44H43.4757V10.68H44.7597ZM49.9284 6.324H55.5684V7.44H51.0924V10.08H55.0884V11.196H51.0924V13.872H55.7364V15H49.9284V6.324ZM64.6202 14.352C64.4762 14.448 64.2802 14.556 64.0322 14.676C63.7842 14.796 63.4922 14.9 63.1562 14.988C62.8282 15.068 62.4682 15.104 62.0762 15.096C61.3962 15.088 60.7882 14.968 60.2522 14.736C59.7162 14.504 59.2562 14.188 58.8722 13.788C58.4962 13.38 58.2082 12.916 58.0082 12.396C57.8082 11.876 57.7082 11.32 57.7082 10.728C57.7082 10.08 57.8122 9.484 58.0202 8.94C58.2362 8.388 58.5362 7.912 58.9202 7.512C59.3042 7.104 59.7562 6.788 60.2762 6.564C60.8042 6.34 61.3802 6.228 62.0042 6.228C62.5242 6.228 62.9962 6.3 63.4202 6.444C63.8442 6.58 64.2082 6.74 64.5122 6.924L64.0442 8.016C63.8042 7.856 63.5122 7.704 63.1682 7.56C62.8242 7.416 62.4482 7.344 62.0402 7.344C61.6162 7.344 61.2162 7.432 60.8402 7.608C60.4642 7.776 60.1322 8.012 59.8442 8.316C59.5562 8.612 59.3282 8.964 59.1602 9.372C59.0002 9.772 58.9202 10.204 58.9202 10.668C58.9202 11.292 59.0482 11.856 59.3042 12.36C59.5682 12.856 59.9362 13.248 60.4082 13.536C60.8882 13.824 61.4482 13.968 62.0882 13.968C62.5362 13.968 62.9282 13.904 63.2642 13.776C63.6082 13.64 63.8922 13.484 64.1162 13.308L64.6202 14.352ZM66.4243 6.324H72.1843V7.44H69.8563V15H68.6923V7.44H66.4243V6.324ZM74.5246 6.324H75.6886V15H74.5246V6.324ZM78.1209 10.668C78.1209 10.068 78.2329 9.5 78.4569 8.964C78.6889 8.428 79.0089 7.956 79.4169 7.548C79.8249 7.14 80.2929 6.82 80.8209 6.588C81.3569 6.348 81.9289 6.228 82.5369 6.228C83.1449 6.228 83.7169 6.348 84.2529 6.588C84.7969 6.82 85.2729 7.14 85.6809 7.548C86.0889 7.956 86.4089 8.428 86.6409 8.964C86.8729 9.5 86.9889 10.068 86.9889 10.668C86.9889 11.284 86.8729 11.86 86.6409 12.396C86.4089 12.924 86.0889 13.392 85.6809 13.8C85.2729 14.208 84.7969 14.528 84.2529 14.76C83.7169 14.984 83.1449 15.096 82.5369 15.096C81.9289 15.096 81.3569 14.984 80.8209 14.76C80.2929 14.536 79.8249 14.224 79.4169 13.824C79.0089 13.424 78.6889 12.956 78.4569 12.42C78.2329 11.876 78.1209 11.292 78.1209 10.668ZM79.3209 10.68C79.3209 11.136 79.4049 11.564 79.5729 11.964C79.7409 12.356 79.9729 12.704 80.2689 13.008C80.5649 13.312 80.9089 13.548 81.3009 13.716C81.6929 13.884 82.1169 13.968 82.5729 13.968C83.1729 13.968 83.7129 13.824 84.1929 13.536C84.6809 13.24 85.0689 12.844 85.3569 12.348C85.6449 11.844 85.7889 11.284 85.7889 10.668C85.7889 10.212 85.7049 9.784 85.5369 9.384C85.3689 8.976 85.1369 8.62 84.8409 8.316C84.5449 8.012 84.2009 7.776 83.8089 7.608C83.4169 7.432 82.9969 7.344 82.5489 7.344C81.9409 7.344 81.3929 7.496 80.9049 7.8C80.4169 8.104 80.0289 8.508 79.7409 9.012C79.4609 9.516 79.3209 10.072 79.3209 10.68ZM96.954 15.276L90.582 8.82L90.606 15H89.43V6.06H89.49L95.85 12.612L95.826 6.324H96.99V15.276H96.954ZM104.11 13.944L107.278 12.108L104.11 10.26V9.048L109.426 12.108L104.11 15.168V13.944Z" fill="white"/>
</svg>
