<svg width="181" height="154" viewBox="0 0 181 154" fill="none" xmlns="http://www.w3.org/2000/svg">
<path d="M8.8418 109.369C7.42383 109.369 6.13477 109.088 4.97461 108.525C3.82617 107.963 2.90039 107.113 2.19727 105.977C1.50586 104.84 1.125 103.416 1.05469 101.705L1.08984 101.6H4.41211C4.45898 103.322 4.85156 104.588 5.58984 105.396C6.33984 106.205 7.40625 106.609 8.78906 106.609C10.2422 106.609 11.3086 106.158 11.9883 105.256C12.668 104.342 13.0078 103.17 13.0078 101.74V86.1309L9.59766 85.6738V83.4062H19.3359V85.6387L16.4707 86.1309V101.74C16.4707 104.037 15.8203 105.883 14.5195 107.277C13.2305 108.672 11.3379 109.369 8.8418 109.369ZM33.8716 109.369C31.6685 109.369 29.7701 108.818 28.1763 107.717C26.5943 106.615 25.3755 105.092 24.5201 103.146C23.6646 101.189 23.2369 98.9395 23.2369 96.3965V96.0273C23.2369 93.4844 23.6588 91.2402 24.5025 89.2949C25.358 87.3379 26.5826 85.8086 28.1763 84.707C29.7701 83.5938 31.6685 83.0371 33.8716 83.0371C36.2037 83.0371 38.1548 83.5938 39.7252 84.707C41.3072 85.8086 42.5025 87.3379 43.3111 89.2949C44.1197 91.2402 44.524 93.4844 44.524 96.0273V96.3965C44.524 98.9395 44.1197 101.189 43.3111 103.146C42.5025 105.092 41.3072 106.615 39.7252 107.717C38.1548 108.818 36.2037 109.369 33.8716 109.369ZM33.8716 106.486C35.5709 106.486 36.942 106.064 37.9849 105.221C39.0396 104.377 39.813 103.199 40.3052 101.688C40.7974 100.164 41.0435 98.4004 41.0435 96.3965V95.9922C41.0435 94 40.7916 92.2539 40.2877 90.7539C39.7955 89.2422 39.022 88.0645 37.9673 87.2207C36.9127 86.3652 35.5474 85.9375 33.8716 85.9375C32.3365 85.9375 31.0357 86.3652 29.9693 87.2207C28.9029 88.0762 28.0943 89.2598 27.5435 90.7715C26.9927 92.2715 26.7173 94.0117 26.7173 95.9922V96.3965C26.7173 98.3887 26.9927 100.146 27.5435 101.67C28.0943 103.182 28.9029 104.365 29.9693 105.221C31.0357 106.064 32.3365 106.486 33.8716 106.486ZM60.4835 109.369C58.7257 109.369 57.1554 109.023 55.7726 108.332C54.3898 107.641 53.2999 106.656 52.503 105.379C51.7062 104.09 51.3077 102.549 51.3077 100.756V86.1309L48.4425 85.6387V83.4062H57.6359V85.6387L54.7706 86.1309V100.756C54.7706 102.666 55.3038 104.119 56.3702 105.115C57.4366 106.1 58.8253 106.592 60.5363 106.592C62.2589 106.592 63.6652 106.105 64.755 105.133C65.8566 104.16 66.4073 102.701 66.4073 100.756V86.1309L63.5421 85.6387V83.4062H72.7355V85.6387L69.8702 86.1309V100.756C69.8702 103.533 69.0089 105.666 67.2863 107.154C65.5753 108.631 63.3077 109.369 60.4835 109.369ZM76.8298 109V106.785L79.695 106.293V86.1309L76.8298 85.6387V83.4238H88.238C91.027 83.4238 93.1657 84.0449 94.654 85.2871C96.1423 86.5176 96.8864 88.2695 96.8864 90.543C96.8864 92.3008 96.447 93.7246 95.568 94.8145C94.6891 95.9043 93.4645 96.6543 91.8942 97.0645L96.2184 106.416L97.9938 106.732V109H93.7223L88.5895 97.4688L83.1579 97.5742V106.293L86.0231 106.785V109H76.8298ZM83.1579 94.8496H87.8864C89.82 94.8496 91.2262 94.4805 92.1052 93.7422C92.9841 93.0039 93.4235 91.9258 93.4235 90.5078C93.4235 89.1602 93.0016 88.0938 92.1579 87.3086C91.3141 86.5234 90.0075 86.1309 88.238 86.1309H83.1579V94.8496ZM102.668 109V106.785L105.533 106.293V86.1309L102.668 85.6387V83.4062H109.031L121.582 103.357L121.688 103.322V86.1309L118.541 85.6387V83.4062H127.735V85.6387L124.869 86.1309V109H121.705L108.821 88.9434L108.715 88.9785V106.293L111.862 106.785V109H102.668ZM131.864 109V106.785L133.762 106.521L142.71 83.4062H145.68L154.47 106.521L156.35 106.785V109H149.003V106.785L150.936 106.451L149.249 101.74H139.001L137.261 106.451L139.194 106.785V109H131.864ZM140.073 98.8398H148.194L144.432 88.4336L144.221 87.8535H144.116L143.905 88.4336L140.073 98.8398ZM160.462 109V106.785L163.327 106.293V86.1309L160.462 85.6387V83.4062H169.656V85.6387L166.79 86.1309V106.346H175.843L176.247 102.303H178.902V109H160.462Z" fill="#162D43"/>
<path d="M49.152 137.464C48.48 137.016 47.136 136.28 46.16 135.816L45.504 136.664C46.48 137.192 47.808 137.96 48.464 138.424L49.152 137.464ZM48.336 141.784C47.632 141.336 46.304 140.632 45.376 140.168L44.72 141.032C45.696 141.544 47.008 142.312 47.664 142.76L48.336 141.784ZM46.096 150.008C47.04 148.536 48.16 146.552 48.992 144.872L48.128 144.088C47.2 145.896 45.968 148.008 45.104 149.208L46.096 150.008ZM57.072 148.44H51.392V145.144H57.072V148.44ZM59.248 141.416V140.264H54.864V137.496C56.24 137.256 57.52 136.952 58.56 136.6L57.632 135.672C55.856 136.312 52.64 136.808 49.888 137.096C50 137.368 50.16 137.816 50.224 138.104C51.36 137.992 52.56 137.848 53.728 137.672V140.264H49.12V141.416H53.728V144.04H50.288V150.216H51.392V149.544H57.072V150.136H58.208V144.04H54.864V141.416H59.248ZM64.576 144.184V143.016H66.592V144.184H64.576ZM64.576 141.08H66.592V142.232H64.576V141.08ZM69.76 141.08V142.232H67.664V141.08H69.76ZM69.76 144.184H67.664V143.016H69.76V144.184ZM73.968 139.32C74 138.2 74 137.016 74 135.816H72.88C72.88 137.032 72.88 138.2 72.848 139.32H70.944V140.44H72.816C72.672 143.432 72.24 146.008 70.864 147.896V147.832C69.792 147.96 68.704 148.072 67.664 148.168V146.904H70.8V145.992H67.664V145.016H70.768V140.264H67.664V139.256H71.056V138.328H67.664V137.16C68.832 137.032 69.92 136.888 70.784 136.696L70.192 135.784C68.544 136.152 65.664 136.44 63.296 136.568C63.424 136.808 63.536 137.192 63.584 137.448C64.528 137.416 65.568 137.352 66.592 137.272V138.328H63.136V139.256H66.592V140.264H63.6V145.016H66.592V145.992H63.568V146.904H66.592V148.28C65.28 148.408 64.08 148.52 63.12 148.6L63.296 149.64C65.088 149.448 67.568 149.176 69.984 148.888C69.776 149.08 69.552 149.272 69.296 149.448C69.584 149.64 70 150.04 70.176 150.296C72.992 148.184 73.728 144.696 73.92 140.44H76.208C76.048 146.248 75.856 148.36 75.488 148.824C75.328 149.032 75.184 149.08 74.912 149.08C74.608 149.08 73.904 149.064 73.136 149C73.312 149.304 73.44 149.8 73.472 150.12C74.208 150.168 74.96 150.184 75.408 150.12C75.888 150.072 76.208 149.944 76.48 149.528C77.024 148.856 77.168 146.632 77.344 139.928C77.344 139.768 77.36 139.32 77.36 139.32H73.968ZM95.328 143.4C95.328 140.152 92.944 137.512 89.2 137.512C85.296 137.512 82.208 140.552 82.208 144.024C82.208 146.664 83.632 148.296 85.056 148.296C86.544 148.296 87.808 146.616 88.784 143.32C89.232 141.832 89.536 140.2 89.744 138.712C92.464 138.936 94.016 140.936 94.016 143.352C94.016 146.12 92 147.64 89.952 148.104C89.584 148.184 89.088 148.264 88.576 148.312L89.328 149.496C93.12 149 95.328 146.76 95.328 143.4ZM83.456 143.912C83.456 141.736 85.344 139.112 88.416 138.728C88.24 140.2 87.92 141.72 87.52 143.048C86.704 145.752 85.856 146.824 85.104 146.824C84.384 146.824 83.456 145.928 83.456 143.912ZM105.648 136.168H100.704V137.128H105.648V136.168ZM104.464 145.656V148.344H101.664V145.656H104.464ZM105.536 144.68H100.608V150.04H101.664V149.304H105.536V144.68ZM100.624 143.496H105.584V142.536H100.624V143.496ZM100.624 141.368H105.584V140.424H100.624V141.368ZM99.872 139.24H106.176V138.264H99.872V139.24ZM109.328 148.92C108.448 148.92 108.288 148.792 108.288 148.168V142.824H112.528V143.704H113.712V136.52H106.912V137.64H112.528V141.688H107.088V148.168C107.088 149.672 107.584 150.04 109.232 150.04H112.432C114.016 150.04 114.384 149.336 114.56 146.776C114.224 146.696 113.728 146.504 113.44 146.28C113.344 148.504 113.216 148.92 112.352 148.92H109.328ZM127.328 146.008C126.24 146.744 125.136 147.496 124.32 147.992L124.272 147.496L122.064 147.944V143.304H124.352V142.264H122.064V140.568H123.904V139.544H119.648C120.528 138.584 121.184 137.576 121.664 136.712C122.512 137.512 123.44 138.648 123.92 139.368L124.704 138.488C124.16 137.672 122.992 136.472 122.048 135.624H120.976C120.448 136.888 119.424 138.504 117.984 139.72C118.192 139.864 118.544 140.232 118.72 140.472C118.944 140.264 119.168 140.056 119.376 139.848V140.568H121.024V142.264H118.528V143.304H121.024V148.152C120.032 148.344 119.12 148.52 118.384 148.632L118.624 149.736C120.192 149.384 122.272 148.952 124.288 148.504L124.64 149.128C125.584 148.488 126.672 147.688 127.68 146.904L127.328 146.008ZM118.896 144.36C119.2 145.32 119.44 146.552 119.472 147.384L120.352 147.16C120.304 146.344 120.048 145.112 119.712 144.152L118.896 144.36ZM123.424 147.096C123.664 146.36 123.968 145.224 124.224 144.248L123.296 144.008C123.168 144.856 122.864 146.12 122.64 146.888L123.424 147.096ZM127.328 144.968C126.992 144.36 126.24 143.48 125.552 142.856L124.752 143.368C125.424 144.008 126.144 144.936 126.464 145.544L127.328 144.968ZM129.104 142.024H132.912V140.984H131.6V136.248H125.248V137.256H130.512V138.632H125.568V139.592H130.512V140.984H124.416V142.024H127.984V148.952C127.984 149.144 127.936 149.192 127.76 149.192C127.584 149.192 127.04 149.208 126.432 149.176C126.576 149.48 126.72 149.928 126.768 150.216C127.632 150.216 128.24 150.216 128.608 150.04C128.992 149.864 129.104 149.544 129.104 148.984V145.144C129.776 146.68 130.816 148.28 132.416 149.256C132.592 148.968 132.96 148.488 133.2 148.296C130.816 147.048 129.616 144.472 129.104 142.392V142.024ZM130.736 145.368C131.376 144.792 132.16 143.944 132.784 143.16L131.856 142.584C131.408 143.272 130.592 144.248 130 144.84L130.736 145.368Z" fill="#162D43"/>
<path d="M83.188 55.3634C82.9946 53.1531 82.451 51.6008 81.5572 50.7066C80.6633 49.8123 79.5782 49.421 78.3019 49.5327C76.2783 49.7097 74.3675 50.4573 72.5693 51.7753C70.7994 53.0594 69.266 54.715 67.969 56.742C66.6693 58.7378 65.6742 60.9894 64.9838 63.4966C64.3246 66.0011 64.1067 68.5297 64.33 71.0824C64.4172 72.0786 64.5808 73.0525 64.8209 74.0039C65.061 74.9553 65.4018 75.8039 65.8435 76.5495C66.3163 77.2923 66.9 77.8687 67.5946 78.2784C68.3203 78.6855 69.2124 78.8427 70.2709 78.7501C71.8897 78.6085 73.3527 78.1197 74.6598 77.2839C75.9642 76.4169 77.1081 75.3287 78.0915 74.0192C79.106 72.7071 79.9498 71.2373 80.623 69.6099C81.3274 67.9798 81.8889 66.3309 82.3077 64.663C82.7237 62.9641 83.0023 61.3085 83.1436 59.6963C83.2849 58.0841 83.2997 56.6398 83.188 55.3634ZM91.967 54.5954C92.144 56.6189 92.049 58.7603 91.6821 61.0196C91.3462 63.2762 90.7599 65.5391 89.9233 67.8081C89.0866 70.0772 88.0225 72.2564 86.7309 74.3456C85.4393 76.4349 83.925 78.3084 82.1878 79.9661C80.4818 81.6211 78.5632 82.9967 76.4319 84.0928C74.3289 85.1552 72.0478 85.7939 69.5885 86.0091C67.6583 86.1779 65.8837 85.9724 64.2645 85.3926C62.6764 84.8101 61.2817 83.9282 60.0805 82.7472C58.8765 81.535 57.8984 80.0364 57.1462 78.2515C56.3941 76.4665 55.9199 74.4533 55.7238 72.2118C55.5522 70.2506 55.6513 68.1558 56.021 65.9276C56.3907 63.6994 56.998 61.4975 57.8428 59.3218C58.7161 57.1123 59.7998 54.9785 61.0941 52.9204C62.4196 50.8595 63.938 49.0327 65.6495 47.44C67.3582 45.8161 69.2484 44.4744 71.3202 43.4148C73.4231 42.3525 75.6731 41.7165 78.0702 41.5067C79.9381 41.3433 81.6816 41.5515 83.3008 42.1314C84.9173 42.6801 86.3404 43.528 87.57 44.6752C88.7997 45.8224 89.7865 47.2418 90.5305 48.9334C91.3057 50.6223 91.7845 52.5096 91.967 54.5954ZM118.291 69.373C118.225 68.6258 118.085 67.9166 117.869 67.2453C117.682 66.5402 117.333 65.959 116.823 65.5018C116.309 65.0134 115.603 64.6517 114.704 64.4167C113.806 64.1816 112.625 64.1281 111.161 64.2561C110.663 64.2997 110.138 64.3927 109.586 64.5351C109.062 64.6437 108.489 64.7252 107.866 64.7796C106.995 64.8559 106.333 64.6471 105.882 64.1533C105.431 63.6595 105.179 63.1013 105.124 62.4786C105.053 61.6692 105.38 60.9192 106.104 60.2285C106.856 59.5039 107.968 58.9517 109.441 58.5719C111.559 58.0416 113.362 57.3191 114.851 56.4047C116.339 55.4902 117.543 54.5536 118.463 53.5948C119.411 52.6021 120.084 51.6806 120.48 50.8303C120.904 49.9462 121.096 49.2707 121.055 48.8037C120.976 47.9009 120.586 47.1979 119.883 46.6948C119.208 46.1578 118.42 45.9287 117.517 46.0077C115.96 46.1439 114.586 46.3896 113.394 46.7449C112.201 47.1002 111.104 47.4628 110.101 47.8329C109.098 48.203 108.172 48.5506 107.322 48.8759C106.472 49.2013 105.627 49.4007 104.786 49.4742C103.883 49.5532 103.065 49.3425 102.331 48.842C101.595 48.3105 101.19 47.6244 101.116 46.7839C101.056 46.099 101.288 45.3415 101.811 44.5115C102.626 43.7815 103.614 43.0676 104.776 42.3699C105.97 41.6695 107.248 41.0401 108.611 40.4817C109.971 39.8921 111.386 39.3919 112.856 38.981C114.356 38.5674 115.839 38.2965 117.302 38.1685C118.765 38.0405 120.165 38.0905 121.503 38.3186C122.837 38.5155 124.02 38.9453 125.05 39.608C126.112 40.268 126.976 41.1806 127.643 42.3457C128.338 43.4769 128.763 44.9297 128.918 46.7042C129.13 49.1324 128.32 51.5247 126.487 53.8809C124.652 56.2059 121.892 58.1884 118.209 59.8282C119.829 60.0628 121.181 60.4621 122.266 61.026C123.35 61.5899 124.224 62.2506 124.886 63.0083C125.577 63.7321 126.071 64.5359 126.368 65.4196C126.693 66.2695 126.891 67.0991 126.962 67.9085C127.177 70.3679 126.999 72.642 126.429 74.7309C125.856 76.7886 125.001 78.6672 123.864 80.3666C122.729 82.097 121.345 83.6612 119.71 85.0589C118.107 86.454 116.35 87.7056 114.439 88.8139C112.529 89.9221 110.528 90.8971 108.437 91.7388C106.346 92.5804 104.277 93.3104 102.229 93.9288C101.739 94.0657 101.31 94.1817 100.942 94.2766C100.574 94.3716 100.219 94.434 99.8762 94.464C98.6933 94.5675 97.7842 94.3961 97.1492 93.9497C96.5452 93.5006 96.2133 92.9337 96.1534 92.2488C96.0907 91.5328 96.338 90.7739 96.8953 89.9723C97.4553 89.2018 98.3273 88.5923 99.5115 88.1436C100.794 87.749 102.16 87.2218 103.608 86.5618C105.09 85.9302 106.544 85.16 107.97 84.251C109.399 83.3731 110.756 82.3917 112.041 81.3068C113.327 80.2219 114.448 79.0572 115.406 77.8127C116.361 76.5372 117.107 75.2015 117.643 73.8056C118.177 72.3787 118.393 70.9011 118.291 69.373Z" fill="#162D43" fill-opacity="0.3"/>
</svg>
