<svg width="299" height="137" viewBox="0 0 299 137" fill="none" xmlns="http://www.w3.org/2000/svg">
<path d="M80.3137 106.299C80.3137 105.595 80.4927 105.029 80.8508 104.599C81.2089 104.163 81.6906 103.945 82.2961 103.945C82.9927 103.945 83.5135 104.319 83.8586 105.068L83.2824 105.263C83.0155 104.788 82.6835 104.551 82.2863 104.551C81.8892 104.551 81.5734 104.71 81.3391 105.029C81.1112 105.348 80.9973 105.771 80.9973 106.299C80.9973 106.839 81.1112 107.269 81.3391 107.588C81.5734 107.9 81.8892 108.056 82.2863 108.056C82.5337 108.056 82.7518 107.982 82.9406 107.832C83.1359 107.682 83.2792 107.497 83.3703 107.275L83.9758 107.461C83.8586 107.78 83.6535 108.06 83.3605 108.301C83.0676 108.535 82.7095 108.652 82.2863 108.652C81.7004 108.652 81.2251 108.441 80.8605 108.017C80.496 107.588 80.3137 107.015 80.3137 106.299ZM78.2727 106.289C78.2727 105.136 78.6405 104.196 79.3762 103.467C80.1184 102.737 81.0461 102.373 82.1594 102.373C83.2857 102.373 84.2167 102.741 84.9523 103.476C85.688 104.205 86.0559 105.143 86.0559 106.289C86.0559 107.415 85.688 108.349 84.9523 109.092C84.2232 109.827 83.2922 110.195 82.1594 110.195C81.0461 110.195 80.1184 109.83 79.3762 109.101C78.6405 108.372 78.2727 107.435 78.2727 106.289ZM78.8391 106.289C78.8391 107.265 79.1451 108.073 79.757 108.711C80.369 109.349 81.1698 109.668 82.1594 109.668C83.1359 109.668 83.9335 109.355 84.552 108.73C85.177 108.099 85.4895 107.285 85.4895 106.289C85.4895 105.306 85.177 104.495 84.552 103.857C83.9335 103.219 83.1359 102.9 82.1594 102.9C81.1893 102.9 80.3918 103.216 79.7668 103.847C79.1483 104.479 78.8391 105.293 78.8391 106.289ZM87.8227 104.336C87.9659 103.769 88.2231 103.323 88.5941 102.998C88.9718 102.672 89.4633 102.51 90.0688 102.51C90.6938 102.51 91.2048 102.689 91.602 103.047C91.9991 103.405 92.1977 103.899 92.1977 104.531C92.1977 105.26 91.8201 105.986 91.0648 106.709C90.1925 107.542 89.6423 108.092 89.4145 108.359C89.1215 108.704 88.9164 109.036 88.7992 109.355H92.1977V110H87.8617C87.8617 109.752 87.9138 109.495 88.018 109.228C88.1287 108.955 88.2458 108.72 88.3695 108.525C88.4932 108.33 88.6983 108.079 88.9848 107.773C89.2712 107.461 89.4893 107.233 89.6391 107.09C89.7953 106.94 90.0622 106.689 90.4398 106.338C91.0779 105.732 91.3969 105.127 91.3969 104.521C91.3969 104.085 91.2732 103.747 91.0258 103.506C90.7849 103.265 90.4594 103.144 90.0492 103.144C89.6456 103.144 89.3135 103.268 89.0531 103.515C88.7927 103.763 88.6104 104.098 88.5063 104.521L87.8227 104.336ZM94.5605 106.347C94.5605 107.324 94.6842 108.099 94.9316 108.672C95.179 109.245 95.5566 109.531 96.0645 109.531C96.3379 109.531 96.5723 109.446 96.7676 109.277C96.9629 109.101 97.1126 108.86 97.2168 108.554C97.3275 108.248 97.4056 107.916 97.4512 107.558C97.5033 107.194 97.5293 106.79 97.5293 106.347C97.5293 105.371 97.4056 104.593 97.1582 104.013C96.9173 103.434 96.5462 103.144 96.0449 103.144C95.5501 103.144 95.179 103.431 94.9316 104.004C94.6842 104.577 94.5605 105.358 94.5605 106.347ZM93.7598 106.347C93.7598 105.019 93.9779 104.049 94.4141 103.437C94.8503 102.819 95.3939 102.51 96.0449 102.51C96.7611 102.51 97.321 102.838 97.7246 103.496C98.1283 104.153 98.3301 105.104 98.3301 106.347C98.3301 107.09 98.252 107.741 98.0957 108.301C97.946 108.86 97.6986 109.313 97.3535 109.658C97.0085 110.003 96.5788 110.176 96.0645 110.176C95.4069 110.176 94.8568 109.86 94.4141 109.228C93.9779 108.597 93.7598 107.636 93.7598 106.347ZM99.7359 104.336C99.8792 103.769 100.136 103.323 100.507 102.998C100.885 102.672 101.377 102.51 101.982 102.51C102.607 102.51 103.118 102.689 103.515 103.047C103.912 103.405 104.111 103.899 104.111 104.531C104.111 105.26 103.733 105.986 102.978 106.709C102.106 107.542 101.556 108.092 101.328 108.359C101.035 108.704 100.83 109.036 100.713 109.355H104.111V110H99.775C99.775 109.752 99.8271 109.495 99.9313 109.228C100.042 108.955 100.159 108.72 100.283 108.525C100.407 108.33 100.612 108.079 100.898 107.773C101.185 107.461 101.403 107.233 101.552 107.09C101.709 106.94 101.976 106.689 102.353 106.338C102.991 105.732 103.31 105.127 103.31 104.521C103.31 104.085 103.186 103.747 102.939 103.506C102.698 103.265 102.373 103.144 101.963 103.144C101.559 103.144 101.227 103.268 100.966 103.515C100.706 103.763 100.524 104.098 100.42 104.521L99.7359 104.336ZM106.191 104.404V103.808H106.484C107.043 103.808 107.424 103.724 107.626 103.554C107.828 103.385 107.929 103.141 107.929 102.822V102.597H108.593V110.097H107.792V104.404H106.191ZM114.998 110V102.685H117.752C118.462 102.685 119.022 102.881 119.432 103.271C119.849 103.662 120.057 104.179 120.057 104.824C120.057 105.488 119.845 106.012 119.422 106.396C118.999 106.78 118.442 106.972 117.752 106.972H115.78V110H114.998ZM115.78 106.318H117.635C118.149 106.318 118.547 106.194 118.827 105.947C119.113 105.693 119.256 105.319 119.256 104.824C119.256 104.342 119.113 103.978 118.827 103.73C118.547 103.476 118.143 103.349 117.616 103.349H115.78V106.318ZM121.863 110V102.685H122.645V109.336H126.121V110H121.863ZM127.459 107.353V102.685H128.24V107.334C128.24 108.063 128.406 108.607 128.738 108.965C129.076 109.323 129.509 109.502 130.037 109.502C130.577 109.502 131.013 109.319 131.345 108.955C131.684 108.584 131.853 108.043 131.853 107.334V102.685H132.634V107.353C132.634 108.239 132.41 108.932 131.961 109.433C131.511 109.928 130.87 110.176 130.037 110.176C129.223 110.176 128.588 109.931 128.132 109.443C127.683 108.955 127.459 108.258 127.459 107.353ZM134.411 108.623L135.134 108.369C135.57 109.124 136.247 109.502 137.165 109.502C137.673 109.502 138.086 109.378 138.405 109.131C138.724 108.883 138.884 108.545 138.884 108.115C138.884 107.9 138.838 107.711 138.747 107.549C138.656 107.379 138.51 107.233 138.308 107.109C138.113 106.985 137.93 106.888 137.761 106.816C137.592 106.745 137.361 106.66 137.068 106.562C136.833 106.484 136.667 106.429 136.57 106.396C136.472 106.364 136.316 106.305 136.101 106.22C135.892 106.136 135.736 106.061 135.632 105.996C135.534 105.931 135.411 105.843 135.261 105.732C135.111 105.615 135.001 105.498 134.929 105.381C134.864 105.263 134.802 105.123 134.743 104.961C134.691 104.791 134.665 104.612 134.665 104.424C134.665 103.844 134.887 103.382 135.329 103.037C135.772 102.685 136.364 102.51 137.107 102.51C137.673 102.51 138.165 102.64 138.581 102.9C139.004 103.161 139.307 103.486 139.489 103.877L138.825 104.111C138.441 103.486 137.862 103.174 137.087 103.174C136.579 103.174 136.182 103.288 135.896 103.515C135.609 103.743 135.466 104.046 135.466 104.424C135.466 104.593 135.505 104.752 135.583 104.902C135.661 105.045 135.746 105.163 135.837 105.254C135.935 105.338 136.088 105.433 136.296 105.537C136.511 105.635 136.677 105.706 136.794 105.752C136.918 105.791 137.116 105.856 137.39 105.947C137.455 105.967 137.504 105.983 137.536 105.996C137.855 106.1 138.122 106.201 138.337 106.299C138.552 106.396 138.773 106.526 139.001 106.689C139.229 106.852 139.398 107.051 139.509 107.285C139.626 107.513 139.685 107.78 139.685 108.086C139.685 108.743 139.454 109.258 138.991 109.629C138.536 109.993 137.92 110.176 137.146 110.176C136.482 110.176 135.918 110.036 135.456 109.756C134.994 109.476 134.646 109.098 134.411 108.623ZM143.834 106.347C143.834 105.202 144.111 104.277 144.664 103.574C145.218 102.864 145.957 102.51 146.881 102.51C147.812 102.51 148.548 102.861 149.088 103.564C149.635 104.267 149.909 105.198 149.909 106.357C149.909 107.529 149.632 108.46 149.079 109.15C148.532 109.834 147.799 110.176 146.881 110.176C145.957 110.176 145.218 109.83 144.664 109.14C144.111 108.444 143.834 107.513 143.834 106.347ZM144.635 106.347C144.635 107.311 144.837 108.079 145.241 108.652C145.644 109.219 146.191 109.502 146.881 109.502C147.558 109.502 148.099 109.222 148.502 108.662C148.906 108.102 149.108 107.334 149.108 106.357C149.108 105.394 148.913 104.622 148.522 104.043C148.131 103.463 147.584 103.174 146.881 103.174C146.191 103.174 145.644 103.46 145.241 104.033C144.837 104.606 144.635 105.377 144.635 106.347ZM151.832 110V102.685H152.73L155.426 107.353L156.305 108.896H156.363C156.285 108.291 156.246 107.601 156.246 106.826V102.685H157.027V110H156.129L153.424 105.302L152.555 103.799H152.516C152.581 104.45 152.613 105.136 152.613 105.859V110H151.832ZM159.459 110V102.685H164.029V103.349H160.24V105.888H163.658V106.543H160.24V109.336H164.107V110H159.459ZM168.755 110V102.685H170.727C171.782 102.685 172.612 102.998 173.218 103.623C173.823 104.241 174.126 105.149 174.126 106.347C174.126 107.487 173.833 108.382 173.247 109.033C172.661 109.677 171.815 110 170.708 110H168.755ZM169.536 109.336H170.591C171.437 109.336 172.104 109.098 172.593 108.623C173.081 108.141 173.325 107.383 173.325 106.347C173.325 105.299 173.081 104.538 172.593 104.062C172.104 103.587 171.444 103.349 170.61 103.349H169.536V109.336ZM176 110V102.685H180.571V103.349H176.782V105.888H180.2V106.543H176.782V109.336H180.649V110H176ZM181.83 108.623L182.553 108.369C182.989 109.124 183.666 109.502 184.584 109.502C185.092 109.502 185.505 109.378 185.824 109.131C186.143 108.883 186.303 108.545 186.303 108.115C186.303 107.9 186.257 107.711 186.166 107.549C186.075 107.379 185.928 107.233 185.727 107.109C185.531 106.985 185.349 106.888 185.18 106.816C185.01 106.745 184.779 106.66 184.486 106.562C184.252 106.484 184.086 106.429 183.988 106.396C183.891 106.364 183.734 106.305 183.52 106.22C183.311 106.136 183.155 106.061 183.051 105.996C182.953 105.931 182.829 105.843 182.68 105.732C182.53 105.615 182.419 105.498 182.348 105.381C182.283 105.263 182.221 105.123 182.162 104.961C182.11 104.791 182.084 104.612 182.084 104.424C182.084 103.844 182.305 103.382 182.748 103.037C183.191 102.685 183.783 102.51 184.525 102.51C185.092 102.51 185.583 102.64 186 102.9C186.423 103.161 186.726 103.486 186.908 103.877L186.244 104.111C185.86 103.486 185.281 103.174 184.506 103.174C183.998 103.174 183.601 103.288 183.314 103.515C183.028 103.743 182.885 104.046 182.885 104.424C182.885 104.593 182.924 104.752 183.002 104.902C183.08 105.045 183.165 105.163 183.256 105.254C183.354 105.338 183.507 105.433 183.715 105.537C183.93 105.635 184.096 105.706 184.213 105.752C184.337 105.791 184.535 105.856 184.809 105.947C184.874 105.967 184.923 105.983 184.955 105.996C185.274 106.1 185.541 106.201 185.756 106.299C185.971 106.396 186.192 106.526 186.42 106.689C186.648 106.852 186.817 107.051 186.928 107.285C187.045 107.513 187.104 107.78 187.104 108.086C187.104 108.743 186.872 109.258 186.41 109.629C185.954 109.993 185.339 110.176 184.564 110.176C183.9 110.176 183.337 110.036 182.875 109.756C182.413 109.476 182.064 109.098 181.83 108.623ZM188.92 110V102.685H189.701V110H188.92ZM191.614 106.347C191.614 105.215 191.898 104.293 192.464 103.584C193.037 102.868 193.815 102.51 194.798 102.51C195.13 102.51 195.439 102.562 195.726 102.666C196.012 102.763 196.25 102.897 196.439 103.066C196.634 103.235 196.793 103.401 196.917 103.564C197.047 103.72 197.155 103.886 197.239 104.062L196.575 104.297C196.113 103.548 195.521 103.174 194.798 103.174C194.049 103.174 193.463 103.467 193.04 104.052C192.624 104.632 192.415 105.397 192.415 106.347C192.415 107.337 192.63 108.112 193.06 108.672C193.489 109.225 194.056 109.502 194.759 109.502C195.397 109.502 195.889 109.293 196.234 108.877C196.579 108.46 196.751 107.969 196.751 107.402V106.719H194.681V106.054H197.513V110H196.946L196.888 108.926C196.504 109.759 195.788 110.176 194.739 110.176C193.808 110.176 193.053 109.834 192.474 109.15C191.901 108.467 191.614 107.532 191.614 106.347ZM199.612 110V102.685H200.511L203.206 107.353L204.085 108.896H204.143C204.065 108.291 204.026 107.601 204.026 106.826V102.685H204.807V110H203.909L201.204 105.302L200.335 103.799H200.296C200.361 104.45 200.393 105.136 200.393 105.859V110H199.612ZM210.08 110V102.685H210.861V110H210.08ZM213.283 110V102.685H214.181L216.877 107.353L217.755 108.896H217.814C217.736 108.291 217.697 107.601 217.697 106.826V102.685H218.478V110H217.58L214.875 105.302L214.005 103.799H213.966C214.032 104.45 214.064 105.136 214.064 105.859V110H213.283ZM220.402 106.347C220.402 105.156 220.691 104.219 221.271 103.535C221.85 102.851 222.602 102.51 223.527 102.51C224.099 102.51 224.585 102.669 224.982 102.988C225.385 103.301 225.688 103.675 225.89 104.111L225.226 104.345C224.79 103.564 224.217 103.174 223.507 103.174C222.804 103.174 222.244 103.463 221.827 104.043C221.411 104.616 221.202 105.384 221.202 106.347C221.202 107.324 221.414 108.095 221.837 108.662C222.26 109.222 222.817 109.502 223.507 109.502C223.943 109.502 224.324 109.381 224.65 109.14C224.975 108.893 225.219 108.59 225.382 108.232L226.085 108.457C225.864 108.932 225.542 109.339 225.118 109.677C224.695 110.01 224.165 110.176 223.527 110.176C222.609 110.176 221.857 109.837 221.271 109.16C220.691 108.476 220.402 107.539 220.402 106.347ZM227.862 110V108.838H229.093V110H227.862Z" fill="black"/>
<path d="M31.5892 73.5273C31.2313 74.5467 30.8442 75.7687 30.4277 77.1932C30.0112 78.6178 29.5531 80.1048 29.0534 81.6542C28.5538 83.2036 28.0064 84.7455 27.4113 86.2798C26.8395 87.812 26.2078 89.1965 25.5161 90.4334C24.8457 91.6449 24.1219 92.6493 23.3447 93.4466C22.5908 94.2419 21.7819 94.6774 20.918 94.7529C20.1942 94.8163 19.5886 94.7516 19.1012 94.559C18.6159 94.3897 18.2295 94.1412 17.942 93.8134C17.6566 93.509 17.4381 93.1635 17.2867 92.7768C17.1565 92.3647 17.0751 91.9718 17.0424 91.5982C16.9934 91.0379 17.025 90.4587 17.1374 89.8607C17.2731 89.2606 17.448 88.7042 17.6619 88.1914L28.9153 62.3271C29.4092 61.2487 29.8874 60.3952 30.35 59.7665C30.8359 59.1358 31.2884 58.661 31.7075 58.342C32.15 58.0209 32.5443 57.8218 32.8904 57.7444C33.2345 57.6437 33.5233 57.5832 33.7568 57.5628C34.1771 57.526 34.5756 57.644 34.9524 57.9169C35.3271 58.1665 35.5482 58.6765 35.6156 59.447C35.681 60.1941 35.5724 61.2388 35.2898 62.581C35.0073 63.9233 34.4189 65.6687 33.5247 67.8173C35.3336 67.5179 37.1048 67.0571 38.8384 66.4349C40.57 65.7893 42.0995 64.985 43.4269 64.0219C44.7776 63.0567 45.8328 61.941 46.5925 60.6746C47.3501 59.3849 47.6595 57.9463 47.5206 56.3586C47.3981 54.9577 47.0481 53.6472 46.4709 52.4273C45.9149 51.1819 45.1514 50.1194 44.1804 49.2398C43.2308 48.3347 42.0893 47.6582 40.7561 47.2102C39.4209 46.7388 37.9128 46.5767 36.2317 46.7238C33.9436 46.924 31.99 47.3184 30.3711 47.907C28.7735 48.4703 27.4099 49.1542 26.2805 49.9589C25.1743 50.7614 24.2642 51.6528 23.55 52.6328C22.8358 53.6128 22.2277 54.5953 21.7257 55.5803C21.2471 56.5633 20.8258 57.5295 20.4618 58.4789C20.0979 59.4283 19.7014 60.2746 19.2724 61.018C18.8667 61.7593 18.3797 62.3783 17.8115 62.875C17.2412 63.3484 16.5124 63.6239 15.6252 63.7015C14.4811 63.8016 13.6034 63.5843 12.9919 63.0497C12.4039 62.5129 12.0628 61.7076 11.9689 60.6335C11.8749 59.5595 12.0646 58.3666 12.538 57.0547C13.0094 55.7195 13.7259 54.3628 14.6876 52.9847C15.6492 51.6065 16.8378 50.2674 18.2533 48.9672C19.6901 47.6416 21.326 46.4398 23.1609 45.3617C24.9958 44.2836 27.0105 43.378 29.2049 42.6449C31.4207 41.8864 33.7777 41.3979 36.276 41.1793C38.6108 40.975 40.8819 41.1175 43.0891 41.6066C45.3177 42.0704 47.3191 42.8952 49.0933 44.081C50.8674 45.2669 52.3327 46.8209 53.489 48.743C54.6666 50.6398 55.3728 52.9307 55.6078 55.6158C55.8222 58.0673 55.4209 60.3375 54.4038 62.4263C53.408 64.4897 51.9663 66.298 50.0789 67.8512C48.2128 69.379 46.0049 70.6309 43.4552 71.6069C40.9035 72.5594 38.1801 73.1624 35.2849 73.4157C34.6779 73.4688 34.0581 73.5112 33.4257 73.5431C32.8166 73.5728 32.2044 73.5676 31.5892 73.5273ZM61.709 80.7774C61.5224 81.2747 61.3432 81.8551 61.1711 82.5184C61.0181 83.1592 60.9633 83.7286 61.0069 84.2267C61.0341 84.538 61.1182 84.7816 61.2591 84.9575C61.3999 85.1334 61.6468 85.2059 61.9996 85.1751C62.4354 85.1369 62.9641 84.9652 63.5857 84.6599C64.2262 84.3319 64.9019 83.9278 65.6128 83.4473C66.3425 82.9443 67.0885 82.3876 67.8507 81.7772C68.6318 81.1442 69.4017 80.5017 70.1603 79.8498C70.917 79.1771 71.6332 78.5184 72.3087 77.8738C73.0032 77.2065 73.6192 76.5985 74.1568 76.0495C74.3101 75.8897 74.4982 75.7687 74.721 75.6865C74.9439 75.6042 75.1383 75.5558 75.3043 75.5413C75.7194 75.505 76.0746 75.6203 76.3698 75.8873C76.665 76.1542 76.8335 76.5264 76.8753 77.0037C76.9134 77.4395 76.8108 77.94 76.5674 78.505C76.3241 79.07 75.8619 79.6437 75.1809 80.2261C73.9598 81.5668 72.7228 82.8462 71.4701 84.0642C70.2173 85.2822 68.9536 86.3756 67.679 87.3446C66.4234 88.2909 65.1533 89.0713 63.8686 89.6856C62.6046 90.2981 61.3501 90.6588 60.1048 90.7677C59.2539 90.8422 58.5279 90.7907 57.9268 90.6132C57.3465 90.4339 56.8627 90.1626 56.4753 89.7991C56.1088 89.4338 55.8292 88.9878 55.6368 88.4609C55.4443 87.934 55.3217 87.3696 55.269 86.7677C55.1801 85.7508 55.2346 84.7004 55.4325 83.6165C55.6494 82.51 55.9264 81.4924 56.2634 80.5637C56.8481 78.8813 57.4442 77.2084 58.0515 75.545C58.6588 73.8816 59.2157 72.3585 59.7221 70.9758L67.3981 50.071C67.7009 49.2289 68.149 48.6146 68.7426 48.228C69.3569 47.8397 69.9858 47.6173 70.6292 47.5611C71.2725 47.5048 71.8691 47.6303 72.4188 47.9378C72.9893 48.2434 73.309 48.7905 73.378 49.5792C73.4107 49.9527 73.3518 50.3552 73.2013 50.7867C73.0716 51.2163 72.8927 51.6815 72.6647 52.1825C72.2312 53.2033 71.713 54.4511 71.11 55.926C70.5279 57.399 69.8943 59.002 69.2094 60.7349C68.5453 62.4661 67.8564 64.2726 67.1427 66.1544C66.4479 68.0137 65.7599 69.8306 65.0786 71.6051C64.4181 73.3777 63.7918 75.0637 63.1998 76.6631C62.6267 78.2398 62.1298 79.6113 61.709 80.7774ZM111.307 78.0066C110.485 79.1242 109.505 80.2346 108.368 81.3379C107.249 82.4187 106.08 83.3993 104.861 84.2798C103.641 85.1603 102.429 85.8833 101.224 86.4488C100.02 87.0351 98.9203 87.3718 97.9241 87.459C96.9279 87.5461 96.094 87.3368 95.4223 86.8309C94.7507 86.325 94.3559 85.3975 94.2378 84.0485C94.1543 83.0938 94.2232 81.969 94.4445 80.6739C93.9757 81.5305 93.3729 82.4093 92.6361 83.3103C91.8994 84.2113 91.0421 85.0496 90.0643 85.8253C89.0865 86.601 87.9724 87.2526 86.722 87.7803C85.4734 88.3287 84.0915 88.6692 82.5765 88.8017C81.8916 88.8616 81.2211 88.8471 80.565 88.7581C79.9297 88.6673 79.3579 88.4664 78.8497 88.1553C78.3415 87.8443 77.9167 87.4109 77.5753 86.8552C77.2321 86.2787 77.0214 85.5443 76.9434 84.6519C76.9415 84.6311 76.9558 84.3162 76.9862 83.7071C77.0147 83.0772 77.1897 82.0894 77.5111 80.7438C77.8515 79.3756 78.397 77.6025 79.1475 75.4247C79.8981 73.2468 80.9935 70.5891 82.4339 67.4516C82.8007 66.6249 83.2498 66.0209 83.7811 65.6398C84.3314 65.2362 84.9385 65.0053 85.6027 64.9472C85.8932 64.9218 86.1978 64.9369 86.5164 64.9927C86.8331 65.0278 87.1337 65.1165 87.418 65.2589C87.7005 65.3806 87.9357 65.5587 88.1235 65.7932C88.3095 66.007 88.4161 66.2695 88.4434 66.5808C88.4615 66.7884 88.4476 66.9883 88.4017 67.1805C88.3288 67.5424 88.1414 68.0293 87.8394 68.6413C87.5564 69.2307 87.2192 69.919 86.828 70.7061C86.435 71.4724 86.0162 72.3037 85.5718 73.2C85.1482 74.0945 84.7584 75.0174 84.4025 75.9687C84.0465 76.92 83.7546 77.8867 83.5269 78.8686C83.2973 79.8298 83.2007 80.7584 83.2373 81.6544C83.27 82.028 83.4037 82.3614 83.6385 82.6545C83.8733 82.9477 84.2293 83.0734 84.7067 83.0316C86.0557 82.9136 87.3098 82.4274 88.4689 81.5731C89.628 80.7189 90.6783 79.6964 91.6198 78.5056C92.5594 77.2941 93.3889 76.019 94.1084 74.6804C94.8467 73.3192 95.4497 72.0849 95.9175 70.9774C96.2501 70.2373 96.5263 69.4498 96.746 68.6149C96.9865 67.7783 97.2532 67.0021 97.5461 66.2863C97.839 65.5706 98.1938 64.9645 98.6104 64.4679C99.027 63.9714 99.5778 63.6932 100.263 63.6332C101.01 63.5679 101.622 63.7548 102.1 64.194C102.577 64.6332 102.845 65.1849 102.903 65.849C102.936 66.2226 102.836 66.7542 102.604 67.4437C102.39 68.1107 102.103 68.8887 101.741 69.7777C101.399 70.6442 101.02 71.5766 100.606 72.5749C100.191 73.5731 99.8096 74.5894 99.4609 75.6237C99.1312 76.6355 98.8628 77.6314 98.6558 78.6115C98.4677 79.5691 98.409 80.4525 98.4799 81.262C98.5452 82.0091 99.0345 82.3427 99.9477 82.2628C100.591 82.2065 101.374 81.9499 102.296 81.4928C103.218 81.0357 104.169 80.4296 105.148 79.6747C106.147 78.8972 107.125 78.0065 108.083 77.0026C109.061 75.9968 109.909 74.9292 110.626 73.8L111.307 78.0066ZM120.195 67.0653C121.519 67.6187 122.717 68.2772 123.787 69.041C124.858 69.8048 125.777 70.634 126.546 71.5288C127.333 72.401 127.946 73.3094 128.384 74.254C128.843 75.1967 129.113 76.1351 129.195 77.069C129.299 78.252 129.05 79.3508 128.448 80.3654C127.866 81.3574 127.054 82.2336 126.012 82.994C124.989 83.7318 123.786 84.3284 122.404 84.784C121.044 85.2584 119.649 85.5583 118.217 85.6836C117.137 85.778 116.078 85.7452 115.04 85.5851C114.003 85.4458 113.037 85.1643 112.143 84.7407C111.269 84.3152 110.497 83.7448 109.828 83.0296C109.157 82.2936 108.65 81.3969 108.307 80.3395C108.251 80.1771 108.218 80.044 108.209 79.9402C108.16 79.3798 108.316 78.8853 108.675 78.4564C109.033 78.0068 109.451 77.7612 109.928 77.7194C110.157 77.6994 110.409 77.7192 110.686 77.7786C110.984 77.8362 111.219 78.0039 111.389 78.2817C111.703 78.7562 112.115 79.1698 112.627 79.5223C113.16 79.8731 113.74 80.1674 114.367 80.4053C114.992 80.6224 115.644 80.785 116.323 80.8929C117.021 80.9783 117.691 80.9928 118.335 80.9365C118.999 80.8784 119.626 80.7608 120.217 80.5836C120.829 80.4046 121.351 80.1602 121.784 79.8505C122.238 79.5389 122.582 79.1638 122.815 78.7251C123.049 78.2864 123.139 77.7661 123.086 77.1643C122.994 76.1058 122.67 75.1512 122.114 74.3006C121.559 73.4499 120.865 72.6846 120.031 72.0046C119.217 71.3021 118.294 70.6718 117.262 70.1138C116.249 69.5332 115.239 68.9837 114.232 68.4654C114.123 68.4122 113.952 68.2494 113.719 67.977C113.484 67.6838 113.353 67.3816 113.326 67.0703C113.304 66.8212 113.349 66.6186 113.461 66.4625C113.755 65.9976 114.1 65.5178 114.495 65.0231C114.891 64.5283 115.322 64.0724 115.787 63.6552C116.251 63.2173 116.763 62.8588 117.325 62.5797C117.884 62.2798 118.475 62.1026 119.097 62.0481C119.554 62.0082 119.985 62.0332 120.39 62.1233C120.795 62.2133 121.142 62.3503 121.43 62.5342C121.716 62.6974 121.943 62.8971 122.11 63.1335C122.296 63.3473 122.398 63.5579 122.416 63.7654C122.441 64.056 122.393 64.3425 122.272 64.6251C122.15 64.9076 121.976 65.1842 121.748 65.4551C121.542 65.7241 121.294 65.9968 121.004 66.273C120.735 66.5475 120.466 66.8116 120.195 67.0653ZM159.787 66.8639C159.522 63.8338 159.718 60.9411 160.377 58.1857C161.054 55.4078 162.051 52.8215 163.368 50.4267C164.704 48.0094 166.289 45.8108 168.124 43.8309C169.979 41.8492 171.942 40.1404 174.012 38.7045C176.101 37.246 178.237 36.0866 180.421 35.2264C182.623 34.3436 184.741 33.8132 186.775 33.6353C188.581 33.4773 190.311 33.5351 191.966 33.8085C193.642 34.0802 195.15 34.5861 196.491 35.3262C197.852 36.0646 199.015 37.0503 199.98 38.2833C200.944 39.4956 201.647 40.9607 202.09 42.6786C202.12 42.7806 202.139 42.8731 202.146 42.9561C202.153 43.0391 202.161 43.1325 202.17 43.2363C202.241 44.0457 202.057 44.6892 201.618 45.1668C201.197 45.6218 200.717 45.8729 200.178 45.9201C199.576 45.9728 198.987 45.7001 198.412 45.1022C197.837 44.5042 197.259 43.6346 196.678 42.4934C195.783 41.1078 194.58 40.1464 193.07 39.6094C191.559 39.0724 189.89 38.8838 188.064 39.0436C186.466 39.1834 184.81 39.621 183.097 40.3564C181.404 41.0901 179.743 42.0615 178.113 43.2706C176.504 44.478 174.986 45.8969 173.56 47.5274C172.133 49.1371 170.906 50.8965 169.881 52.8056C168.855 54.694 168.079 56.7067 167.555 58.8438C167.052 60.9792 166.897 63.1572 167.092 65.3779C167.253 67.225 167.618 68.7615 168.185 69.9876C168.752 71.2136 169.444 72.1883 170.26 72.9116C171.076 73.6349 171.967 74.1321 172.932 74.4032C173.896 74.6743 174.856 74.7681 175.811 74.6846C177.949 74.4976 179.932 73.7385 181.76 72.4074C183.609 71.0745 185.176 69.2644 186.461 66.977C187.744 64.6689 188.685 61.9202 189.284 58.7308C189.882 55.5207 190.009 51.9544 189.666 48.0319C189.631 47.6376 189.587 47.2545 189.534 46.8828C189.499 46.4884 189.464 46.0837 189.428 45.6686C189.337 44.6309 189.457 43.8571 189.789 43.3471C190.119 42.8163 190.523 42.53 191 42.4882C191.809 42.4174 192.483 42.5885 193.021 43.0015C193.578 43.392 194.035 43.9481 194.391 44.6698C194.745 45.3708 195.015 46.194 195.203 47.1397C195.409 48.0627 195.556 49.0223 195.643 50.0185C195.89 52.8411 195.822 55.5343 195.44 58.0982C195.056 60.6413 194.418 63.0289 193.526 65.261C192.652 67.4705 191.554 69.4907 190.229 71.3214C188.923 73.1296 187.471 74.6996 185.873 76.0315C184.273 77.3426 182.556 78.4025 180.724 79.2111C178.911 79.9971 177.049 80.4737 175.14 80.6407C173.376 80.7951 171.631 80.6967 169.907 80.3457C168.18 79.9739 166.602 79.265 165.172 78.219C163.761 77.1504 162.567 75.6968 161.591 73.8583C160.633 71.9972 160.032 69.6657 159.787 66.8639ZM207.196 58.0735C207.533 57.1447 207.994 56.4352 208.579 55.9449C209.163 55.4546 209.756 55.1831 210.358 55.1304C210.856 55.0869 211.319 55.2346 211.746 55.5737C212.171 55.892 212.414 56.404 212.476 57.1096C212.5 57.3794 212.494 57.6727 212.459 57.9895C212.424 58.3062 212.339 58.6483 212.204 59.0156C212.609 58.3945 213.211 57.7459 214.01 57.0696C214.806 56.3725 215.692 55.7408 216.667 55.1745C217.661 54.5856 218.684 54.0883 219.736 53.6826C220.809 53.275 221.833 53.0286 222.809 52.9432C223.909 52.847 224.845 53.0369 225.619 53.513C226.411 53.9664 226.863 54.8262 226.974 56.0922C227.039 56.8393 226.993 57.6276 226.836 58.457C226.678 59.2864 226.448 60.1221 226.145 60.9642C225.863 61.8045 225.529 62.6389 225.141 63.4675C224.772 64.2735 224.4 65.038 224.024 65.7611C223.648 66.4841 223.299 67.1525 222.976 67.7663C222.672 68.3575 222.433 68.849 222.258 69.2407C222.017 69.5964 221.916 69.9921 221.954 70.428C221.969 70.594 222.033 70.7347 222.148 70.8502C222.263 70.9656 222.434 71.0134 222.662 70.9934C222.808 70.9807 222.973 70.9558 223.158 70.9187C223.341 70.8608 223.559 70.7267 223.813 70.5163C224.897 70.0032 225.993 69.3845 227.101 68.6602C228.229 67.9341 229.303 67.1813 230.323 66.402C231.34 65.602 232.265 64.8205 233.098 64.0575C233.949 63.272 234.651 62.5727 235.204 61.9597C235.357 61.7999 235.514 61.6816 235.675 61.6048C235.836 61.528 235.988 61.4833 236.134 61.4706C236.487 61.4397 236.768 61.551 236.979 61.8045C237.21 62.0561 237.343 62.3895 237.38 62.8045C237.436 63.4479 237.291 64.1821 236.945 65.0071C236.62 65.8302 236.051 66.6224 235.239 67.3835C234.131 68.3379 233.109 69.2115 232.175 70.0043C231.261 70.7953 230.313 71.5475 229.33 72.2609C228.365 72.9517 227.315 73.6187 226.179 74.2618C225.063 74.8823 223.736 75.4899 222.198 76.0845C221.673 76.2977 221.186 76.4658 220.737 76.5888C220.308 76.7099 219.907 76.7869 219.533 76.8195C218.433 76.9158 217.598 76.6857 217.026 76.1292C216.474 75.5501 216.149 74.7106 216.053 73.6107C216.04 73.4654 216.028 73.3305 216.017 73.206C216.026 73.0589 216.033 72.9014 216.039 72.7336C216.024 72.0865 216.128 71.3664 216.352 70.5731C216.596 69.7779 216.89 68.9575 217.234 68.1118C217.599 67.2642 217.986 66.4253 218.394 65.5948C218.801 64.7437 219.171 63.948 219.503 63.2079C219.855 62.4452 220.141 61.7718 220.362 61.1879C220.582 60.6039 220.677 60.1355 220.646 59.7827C220.619 59.4714 220.503 59.2201 220.298 59.0289C220.112 58.8152 219.843 58.7237 219.49 58.7546C218.162 58.8708 216.93 59.3759 215.795 60.2698C214.681 61.162 213.656 62.2346 212.72 63.4876C211.783 64.7199 210.934 66.0175 210.175 67.3805C209.416 68.7435 208.749 69.9625 208.174 71.0376C207.818 71.7588 207.499 72.5292 207.215 73.3487C206.95 74.1456 206.661 74.9029 206.347 75.6205C206.032 76.3173 205.655 76.9045 205.215 77.3821C204.799 77.8786 204.238 78.1577 203.532 78.2195C202.806 78.283 202.215 78.1047 201.76 77.6844C201.305 77.2641 201.048 76.7219 200.99 76.0578C200.959 75.705 201.055 75.1215 201.276 74.3075C201.498 73.4934 201.791 72.5475 202.157 71.4699C202.523 70.3922 202.934 69.2374 203.391 68.0054C203.867 66.7508 204.334 65.5179 204.793 64.3066C205.271 63.0728 205.723 61.9144 206.151 60.8313C206.579 59.7482 206.928 58.8289 207.196 58.0735ZM249.856 54.8745C249.75 54.8628 249.656 54.8606 249.573 54.8679C249.49 54.8751 249.397 54.8833 249.293 54.8924C248.504 54.9614 247.781 55.1815 247.124 55.5527C246.466 55.924 245.869 56.3944 245.333 56.9641C244.817 57.5112 244.358 58.1264 243.958 58.8098C243.578 59.4913 243.24 60.1692 242.944 60.8434C242.645 61.4969 242.397 62.1251 242.199 62.728C242.021 63.3291 241.888 63.8322 241.798 64.2374C242.491 63.8003 243.201 63.3095 243.927 62.765C244.674 62.2186 245.371 61.6976 246.018 61.2018C246.665 60.7061 247.222 60.26 247.689 59.8636C248.177 59.4654 248.519 59.1949 248.716 59.0523C249.599 58.3894 250.195 57.7935 250.504 57.2646C250.812 56.7149 250.949 56.2532 250.916 55.8796C250.889 55.5683 250.764 55.3284 250.54 55.1597C250.337 54.9893 250.109 54.8942 249.856 54.8745ZM250.601 50.4803C252.324 50.3296 253.647 50.6321 254.57 51.3879C255.494 52.1436 256.02 53.2582 256.149 54.7317C256.225 55.6034 256.077 56.5366 255.704 57.5312C255.331 58.5258 254.627 59.5703 253.594 60.6645C252.558 61.738 251.142 62.8762 249.344 64.0792C247.565 65.2595 245.31 66.492 242.578 67.7767C242.734 68.3695 243.098 68.8187 243.668 69.1243C244.237 69.4091 244.967 69.5125 245.86 69.4344C246.815 69.3509 247.82 69.127 248.875 68.7628C249.95 68.376 250.997 67.9184 252.018 67.39C253.059 66.8597 254.066 66.3011 255.039 65.714C256.011 65.1062 256.881 64.5385 257.651 64.0111C258.441 63.4819 259.091 63.0277 259.602 62.6484C260.133 62.2673 260.489 62.0271 260.668 61.9277C260.844 61.7869 261.004 61.6997 261.147 61.6662C261.311 61.631 261.456 61.6079 261.58 61.597C261.829 61.5752 262.042 61.6193 262.219 61.7293C262.394 61.8185 262.541 61.9416 262.659 62.0986C262.797 62.233 262.894 62.3917 262.952 62.5749C263.008 62.7373 263.042 62.8808 263.052 63.0053C263.069 63.1921 263.068 63.4222 263.05 63.6956C263.03 63.9483 262.9 64.2525 262.659 64.6081C262.565 64.721 262.236 65.032 261.674 65.5413C261.133 66.0487 260.423 66.6546 259.544 67.3589C258.664 68.0633 257.633 68.8227 256.449 69.6373C255.284 70.4293 254.032 71.1767 252.693 71.8795C251.374 72.5804 249.983 73.183 248.522 73.6874C247.062 74.2124 245.606 74.5385 244.153 74.6656C242.908 74.7745 241.777 74.633 240.759 74.241C239.763 73.8472 238.887 73.2755 238.131 72.526C237.396 71.7747 236.806 70.8853 236.361 69.8577C235.915 68.8301 235.642 67.7352 235.54 66.573C235.462 65.6806 235.553 64.6897 235.813 63.6004C236.072 62.4903 236.486 61.3666 237.055 60.2293C237.625 59.092 238.343 57.9731 239.208 56.8726C240.093 55.7495 241.103 54.741 242.238 53.8471C243.372 52.9531 244.635 52.2048 246.025 51.6022C247.436 50.9977 248.961 50.6238 250.601 50.4803Z" fill="#162D43"/>
</svg>
