<svg width="17" height="117" viewBox="0 0 17 117" fill="none" xmlns="http://www.w3.org/2000/svg">
<path d="M14.156 44.316C14.156 42.384 13.004 41.208 11.588 41.208C10.292 41.208 9.644 41.964 9.2 43.008L8.684 44.22C8.396 44.94 8.108 45.648 7.34 45.648C6.644 45.648 6.212 45.06 6.212 44.16C6.212 43.38 6.512 42.768 7.004 42.216L6.116 41.484C5.432 42.156 5 43.128 5 44.16C5 45.84 6.044 47.064 7.436 47.064C8.72 47.064 9.392 46.116 9.752 45.264L10.28 44.04C10.64 43.224 10.892 42.624 11.696 42.624C12.44 42.624 12.944 43.224 12.944 44.292C12.944 45.144 12.536 46.008 11.9 46.644L12.86 47.46C13.676 46.656 14.156 45.528 14.156 44.316ZM14.156 35.6112C14.156 34.4712 13.7 33.5712 12.884 32.8632L12.008 33.6072C12.584 34.1352 12.944 34.7472 12.944 35.5632C12.944 37.1232 11.66 38.1072 9.56 38.1072C7.484 38.1072 6.212 37.0512 6.212 35.5272C6.212 34.8072 6.536 34.2552 7.004 33.7992L6.116 33.0432C5.528 33.5832 5 34.4472 5 35.5512C5 37.7832 6.728 39.5352 9.608 39.5352C12.5 39.5352 14.156 37.8312 14.156 35.6112ZM14 30.8174V29.4254H10.436V27.9974L14 25.9934V24.4214L10.256 26.5814C9.908 25.4654 9.092 24.7334 7.724 24.7334C5.816 24.7334 5.156 26.1014 5.156 27.9254V30.8174H14ZM9.32 29.4254H6.284V28.0934C6.284 26.8094 6.656 26.1134 7.724 26.1134C8.792 26.1134 9.32 26.8094 9.32 28.0934V29.4254ZM14.156 19.1024C14.156 16.8344 12.392 15.2504 9.548 15.2504C6.704 15.2504 5 16.8344 5 19.1024C5 21.3704 6.704 22.9424 9.548 22.9424C12.392 22.9424 14.156 21.3704 14.156 19.1024ZM12.944 19.1024C12.944 20.5664 11.612 21.5144 9.548 21.5144C7.472 21.5144 6.212 20.5664 6.212 19.1024C6.212 17.6384 7.472 16.6784 9.548 16.6784C11.612 16.6784 12.944 17.6384 12.944 19.1024ZM14 12.9355V7.79953H12.824V11.5435H5.156L5.156 12.9355H14ZM14 5.76412L14 0.628123H12.824V4.37212H5.156V5.76412H14Z" fill="white"/>
<path d="M8 56L8 116" stroke="white" stroke-width="2" stroke-linecap="round"/>
</svg>
