<svg width="195" height="149" viewBox="0 0 195 149" fill="none" xmlns="http://www.w3.org/2000/svg">
<path d="M138.948 66.9164C138.755 64.7061 138.211 63.1538 137.317 62.2596C136.424 61.3653 135.339 60.974 134.062 61.0857C132.039 61.2627 130.128 62.0102 128.33 63.3282C126.56 64.6124 125.026 66.2679 123.729 68.2949C122.43 70.2908 121.435 72.5424 120.744 75.0496C120.085 77.5541 119.867 80.0827 120.09 82.6354C120.177 83.6316 120.341 84.6054 120.581 85.5569C120.821 86.5083 121.162 87.3568 121.604 88.1024C122.077 88.8453 122.66 89.4216 123.355 89.8314C124.081 90.2384 124.973 90.3957 126.031 90.3031C127.65 90.1614 129.113 89.6727 130.42 88.8368C131.725 87.9699 132.868 86.8816 133.852 85.5722C134.866 84.26 135.71 82.7903 136.383 81.1629C137.088 79.5328 137.649 77.8839 138.068 76.216C138.484 74.517 138.763 72.8615 138.904 71.2493C139.045 69.6371 139.06 68.1928 138.948 66.9164ZM147.727 66.1483C147.904 68.1719 147.809 70.3133 147.442 72.5726C147.107 74.8292 146.52 77.0921 145.684 79.3611C144.847 81.6302 143.783 83.8093 142.491 85.8986C141.2 87.9879 139.685 89.8614 137.948 91.5191C136.242 93.174 134.323 94.5496 132.192 95.6458C130.089 96.7081 127.808 97.3469 125.349 97.562C123.419 97.7309 121.644 97.5254 120.025 96.9456C118.437 96.363 117.042 95.4812 115.841 94.3002C114.637 93.088 113.659 91.5894 112.907 89.8044C112.154 88.0194 111.68 86.0062 111.484 83.7648C111.313 81.8035 111.412 79.7088 111.781 77.4806C112.151 75.2524 112.758 73.0505 113.603 70.8748C114.476 68.6653 115.56 66.5315 116.854 64.4733C118.18 62.4125 119.698 60.5857 121.41 58.993C123.118 57.3691 125.009 56.0274 127.081 54.9678C129.183 53.9055 131.433 53.2694 133.831 53.0597C135.698 52.8963 137.442 53.1045 139.061 53.6843C140.678 54.233 142.101 55.081 143.33 56.2282C144.56 57.3754 145.547 58.7948 146.291 60.4864C147.066 62.1752 147.545 64.0626 147.727 66.1483ZM188.677 82.9872C188.799 82.9451 188.906 82.92 189 82.9119C189.09 82.8726 189.182 82.8488 189.276 82.8407C189.93 82.7835 190.496 82.9849 190.976 83.4448C191.455 83.9048 191.726 84.4928 191.789 85.2088C191.879 86.2361 191.585 87.1872 190.909 88.0619C190.264 88.934 189.405 89.6992 188.334 90.3576C187.259 90.9849 186.065 91.4972 184.751 91.8945C183.437 92.2918 182.173 92.5435 180.958 92.6498C179.962 92.7369 178.976 92.7605 178 92.7204C177.027 92.7114 175.95 92.5861 174.768 92.3444C173.586 92.1028 172.25 91.7177 170.761 91.1892C169.272 90.6608 167.499 89.9375 165.442 89.0195C163.706 90.3321 162.338 91.3615 161.337 92.1079C160.366 92.8515 159.615 93.4035 159.082 93.7638C158.549 94.1242 158.176 94.345 157.963 94.4263C157.751 94.5076 157.567 94.5551 157.411 94.5687C157.038 94.6014 156.638 94.5109 156.211 94.2973C155.818 94.1121 155.435 93.8476 155.059 93.504C154.684 93.1604 154.367 92.7647 154.109 92.3168C153.847 91.8377 153.693 91.3336 153.647 90.8044C153.609 90.3685 153.664 89.9245 153.813 89.4723C153.992 89.0174 154.316 88.597 154.785 88.211C156.741 86.9105 158.723 85.545 160.731 84.1146C162.737 82.653 164.66 81.1515 166.501 79.6102C168.34 78.0377 170.052 76.445 171.636 74.832C173.22 73.219 174.586 71.6251 175.735 70.0503C176.88 68.4444 177.747 66.8785 178.335 65.3527C178.951 63.793 179.197 62.2972 179.072 60.8651C178.949 59.4642 178.521 58.5136 177.787 58.0131C177.05 57.4816 176.122 57.2648 175.001 57.3628C174.098 57.4418 173.131 57.6833 172.1 58.0872C171.1 58.4884 170.092 58.9843 169.078 59.575C168.06 60.1346 167.046 60.7409 166.037 61.3938C165.056 62.0129 164.136 62.611 163.277 63.1881C162.446 63.7313 161.702 64.1886 161.044 64.5598C160.386 64.931 159.871 65.133 159.497 65.1657C158.999 65.2092 158.522 65.1411 158.068 64.9614C157.613 64.7816 157.215 64.5341 156.873 64.2189C156.529 63.8725 156.245 63.4896 156.02 63.0701C155.826 62.6479 155.709 62.2033 155.668 61.7363C155.6 60.9581 155.888 60.1329 156.534 59.2609C157.176 58.3577 158.055 57.4652 159.17 56.5834C160.285 55.7016 161.575 54.8516 163.04 54.0332C164.506 53.2149 166.009 52.4717 167.551 51.8035C169.123 51.1327 170.675 50.5891 172.207 50.1727C173.768 49.7225 175.202 49.4402 176.509 49.3258C178.035 49.1923 179.485 49.2694 180.859 49.557C182.261 49.8107 183.498 50.3299 184.571 51.1144C185.641 51.8678 186.517 52.9204 187.2 54.2723C187.914 55.6214 188.36 57.3077 188.537 59.3313C188.686 61.0435 188.556 62.7802 188.145 64.5414C187.766 66.2999 186.941 68.1602 185.669 70.1222C184.395 72.0531 182.613 74.0912 180.322 76.2365C178.063 78.3791 175.128 80.6905 171.518 83.1708C172.909 83.6452 174.384 84.018 175.945 84.2893C177.506 84.5605 178.893 84.643 180.108 84.5368C181.01 84.4578 181.818 84.3714 182.532 84.2777C183.245 84.1839 183.926 84.0773 184.574 83.9578C185.22 83.8072 185.865 83.6566 186.511 83.5061C187.156 83.3555 187.878 83.1825 188.677 82.9872Z" fill="black" fill-opacity="0.47"/>
<path d="M10.6523 104.369C9.09375 104.369 7.59375 104.141 6.15234 103.684C4.71094 103.227 3.33398 102.523 2.02148 101.574V96.1074H4.71094L5.29102 100.133C6.05273 100.602 6.87891 100.965 7.76953 101.223C8.66016 101.48 9.62109 101.609 10.6523 101.609C12.3984 101.609 13.752 101.223 14.7129 100.449C15.6738 99.6641 16.1543 98.6387 16.1543 97.373C16.1543 96.2012 15.7207 95.2285 14.8535 94.4551C13.9863 93.6816 12.4395 93.043 10.2129 92.5391C7.56445 91.9297 5.54297 91.0039 4.14844 89.7617C2.75391 88.5078 2.05664 86.9316 2.05664 85.0332C2.05664 83.6973 2.4082 82.502 3.11133 81.4473C3.82617 80.3926 4.81641 79.5605 6.08203 78.9512C7.34766 78.3418 8.82422 78.0371 10.5117 78.0371C12.3047 78.0371 13.8867 78.3125 15.2578 78.8633C16.6406 79.4023 17.7773 80.0586 18.668 80.832V85.9473H15.9785L15.3984 82.291C14.8711 81.8691 14.2148 81.5176 13.4297 81.2363C12.6445 80.9551 11.6719 80.8145 10.5117 80.8145C9.02344 80.8145 7.81641 81.1953 6.89062 81.957C5.97656 82.7188 5.51953 83.7266 5.51953 84.9805C5.51953 86.082 5.95898 86.9844 6.83789 87.6875C7.7168 88.3789 9.24023 88.9941 11.4082 89.5332C14.1035 90.2012 16.1426 91.1914 17.5254 92.5039C18.9199 93.8047 19.6172 95.416 19.6172 97.3379C19.6172 98.709 19.248 99.9277 18.5098 100.994C17.7715 102.049 16.7285 102.875 15.3809 103.473C14.0449 104.07 12.4688 104.369 10.6523 104.369ZM24.063 104V101.785L26.9283 101.293V81.1309L24.063 80.6387V78.4062H43.0123V84.5586H40.2349L39.8482 81.0781H30.3912V89.4102H39.8306V92.1348H30.3912V101.398H40.4107L40.7974 97.8652H43.5572V104H24.063ZM48.4601 104V101.785L51.3253 101.293V81.1309L48.4601 80.6387V78.4238H59.8683C62.6573 78.4238 64.796 79.0449 66.2843 80.2871C67.7726 81.5176 68.5167 83.2695 68.5167 85.543C68.5167 87.3008 68.0773 88.7246 67.1984 89.8145C66.3195 90.9043 65.0948 91.6543 63.5245 92.0645L67.8488 101.416L69.6241 101.732V104H65.3527L60.2198 92.4688L54.7882 92.5742V101.293L57.6534 101.785V104H48.4601ZM54.7882 89.8496H59.5167C61.4503 89.8496 62.8566 89.4805 63.7355 88.7422C64.6144 88.0039 65.0538 86.9258 65.0538 85.5078C65.0538 84.1602 64.632 83.0938 63.7882 82.3086C62.9445 81.5234 61.6378 81.1309 59.8683 81.1309H54.7882V89.8496ZM83.193 104L74.6149 80.9199L72.5759 80.6387V78.4062H80.6618V80.6387L78.3239 81.0078L84.0544 97.2852L84.652 99.3066H84.7575L85.3903 97.2852L91.3317 80.9902L88.7302 80.6387V78.4062H96.7985V80.6387L94.7419 80.9199L86.1637 104H83.193ZM100.805 104V101.785L103.67 101.293V81.1309L100.805 80.6387V78.4062H109.998V80.6387L107.133 81.1309V101.293L109.998 101.785V104H100.805ZM125.87 104.369C123.304 104.369 121.159 103.807 119.436 102.682C117.725 101.557 116.436 100.016 115.569 98.0586C114.714 96.1016 114.286 93.8809 114.286 91.3965V91.0273C114.286 88.5195 114.737 86.293 115.639 84.3477C116.542 82.3906 117.837 80.8496 119.524 79.7246C121.212 78.5996 123.227 78.0371 125.571 78.0371C127.223 78.0371 128.735 78.2949 130.106 78.8105C131.477 79.3262 132.614 79.9824 133.516 80.7793V86.2988H130.757L130.387 82.2559C129.204 81.3535 127.593 80.9023 125.554 80.9023C123.878 80.9023 122.46 81.3359 121.3 82.2031C120.139 83.0586 119.261 84.2422 118.663 85.7539C118.065 87.2656 117.766 89.0117 117.766 90.9922V91.3965C117.766 94.6191 118.475 97.1211 119.893 98.9023C121.311 100.672 123.345 101.557 125.993 101.557C126.813 101.557 127.616 101.457 128.401 101.258C129.186 101.059 129.837 100.801 130.352 100.484L130.739 96.916H133.446V102.471C132.485 103.068 131.337 103.537 130.001 103.877C128.665 104.205 127.288 104.369 125.87 104.369ZM138.419 104V101.785L141.285 101.293V81.1309L138.419 80.6387V78.4062H157.369V84.5586H154.591L154.204 81.0781H144.747V89.4102H154.187V92.1348H144.747V101.398H154.767L155.154 97.8652H157.913V104H138.419Z" fill="white"/>
<path d="M12.384 141.888H8.544V140.688H12.384V141.888ZM8.544 138.624H12.384V139.744H8.544V138.624ZM3.92 135.792V134.64H7.36V135.792H3.92ZM12.128 134.64V135.792H8.544V134.64H12.128ZM15.216 139.744H13.568V137.744H8.544V136.624H13.312V133.808H8.544V132.88H14.912V131.904H8.544V130.624H7.36V131.904H1.12V132.88H7.36V133.808H2.784V136.624H7.36V137.744H2.336V138.624H7.36V139.744H0.816V140.688H7.36V141.888H2.192V142.8H7.36V143.904C7.36 144.176 7.264 144.272 6.96 144.288C6.688 144.288 5.728 144.304 4.768 144.272C4.928 144.544 5.12 144.976 5.184 145.28C6.512 145.28 7.344 145.264 7.84 145.088C8.32 144.912 8.544 144.64 8.544 143.904V142.8H12.384V143.52H13.568V140.688H15.216V139.744ZM28.784 134.464C28.56 135.008 28.24 135.664 27.968 136.128L28.128 136.176H24.368L24.88 136.064C24.752 135.632 24.416 134.96 24.08 134.464H28.784ZM33.376 141.424V140.416H26.96V139.232H31.968V138.32H26.96V137.152H32.752V136.176H29.12C29.44 135.696 29.792 135.072 30.112 134.464H33.312V133.44H30.832C31.28 132.832 31.792 131.952 32.24 131.136L31.024 130.816C30.736 131.536 30.224 132.576 29.808 133.248L30.4 133.44H28.464V130.608H27.344V133.44H25.44V130.608H24.336V133.44H22.368L23.184 133.136C22.944 132.496 22.368 131.504 21.824 130.784L20.816 131.12C21.296 131.84 21.856 132.8 22.08 133.44H19.536V134.464H23.44L22.88 134.576C23.2 135.056 23.52 135.696 23.664 136.176H20.176V137.152H25.792V138.32H20.976V139.232H25.792V140.416H19.472V141.424H24.704C23.264 142.544 21.04 143.504 19.056 143.952C19.312 144.208 19.664 144.656 19.824 144.96C21.92 144.352 24.256 143.2 25.792 141.808V145.216H26.96V141.728C28.496 143.2 30.832 144.4 32.976 145.008C33.136 144.672 33.504 144.208 33.776 143.952C31.728 143.52 29.52 142.576 28.064 141.424H33.376ZM44.32 137.76H47.52V139.392H44.32V137.76ZM44.32 135.28H47.52V136.736H44.32V135.28ZM40.288 132.416H49.84V134.24H40.288V132.416ZM50.208 140.512C49.6 141.008 48.624 141.664 47.808 142.128C47.296 141.632 46.864 141.056 46.528 140.416H51.952V139.392H48.624V137.76H51.312V136.736H48.624V135.28H51.008V131.376H39.088V136.032C39.088 138.592 38.96 142.112 37.36 144.624C37.648 144.736 38.176 145.04 38.4 145.232C40.048 142.64 40.288 138.752 40.288 136.032V135.28H43.2V136.736H40.816V137.76H43.2V139.392H40.336V140.416H42.352V143.632C41.664 143.744 41.04 143.84 40.512 143.904L40.704 145.008C42.368 144.72 44.688 144.336 46.88 143.968L46.832 142.928C45.68 143.12 44.528 143.296 43.456 143.472V140.416H45.424C46.496 142.864 48.528 144.528 51.408 145.248C51.536 144.944 51.856 144.512 52.112 144.256C50.72 143.984 49.52 143.472 48.544 142.752C49.376 142.32 50.336 141.712 51.104 141.136L50.208 140.512ZM61.344 132.208V133.504H57.84V132.208H61.344ZM57.84 135.728V134.352H61.344V135.728H57.84ZM62.464 136.64V131.296H56.672V145.232H57.84V136.64H62.464ZM62.016 140.352V138.624H64.256V140.352H62.016ZM67.488 141.36V140.352H65.312V138.624H67.136V137.648H59.248V138.624H60.976V140.352H58.944V141.36H60.944C60.848 142.288 60.4 143.616 59.056 144.432C59.312 144.592 59.664 144.928 59.84 145.136C61.376 144.096 61.888 142.432 61.984 141.36H64.256V144.928H65.312V141.36H67.488ZM65.008 135.744V134.352H68.64V135.744H65.008ZM68.64 132.208V133.504H65.008V132.208H68.64ZM69.808 131.296H63.872V136.656H68.64V143.664C68.64 143.92 68.56 144.016 68.304 144.016C68.064 144.032 67.2 144.032 66.32 144C66.496 144.32 66.672 144.88 66.704 145.184C67.904 145.2 68.704 145.168 69.184 144.976C69.648 144.768 69.808 144.384 69.808 143.68V131.296Z" fill="white"/>
</svg>
