<svg width="124" height="22" viewBox="0 0 124 22" fill="none" xmlns="http://www.w3.org/2000/svg">
<rect width="124" height="22" fill="#182F45" fill-opacity="0.5"/>
<path d="M18.9954 5.324H24.7554V6.44H22.4274V14H21.2634V6.44H18.9954V5.324ZM27.0958 5.324H28.2598V14H27.0958V5.324ZM38.7561 14.276L32.3841 7.82L32.4081 14H31.2321V5.06H31.2921L37.6521 11.612L37.6281 5.324H38.7921V14.276H38.7561ZM44.0708 11.108L40.8548 5.324H42.2948L44.6828 9.788L47.0588 5.324H48.4868L45.2348 11.108V14H44.0708V11.108ZM61.7082 5.324V14H60.5322V10.196H55.9962V14H54.8322V5.324H55.9962V9.08H60.5322V5.324H61.7082ZM64.1472 9.668C64.1472 9.068 64.2592 8.5 64.4832 7.964C64.7152 7.428 65.0352 6.956 65.4432 6.548C65.8512 6.14 66.3192 5.82 66.8472 5.588C67.3832 5.348 67.9552 5.228 68.5632 5.228C69.1712 5.228 69.7432 5.348 70.2792 5.588C70.8232 5.82 71.2992 6.14 71.7072 6.548C72.1152 6.956 72.4352 7.428 72.6672 7.964C72.8992 8.5 73.0152 9.068 73.0152 9.668C73.0152 10.284 72.8992 10.86 72.6672 11.396C72.4352 11.924 72.1152 12.392 71.7072 12.8C71.2992 13.208 70.8232 13.528 70.2792 13.76C69.7432 13.984 69.1712 14.096 68.5632 14.096C67.9552 14.096 67.3832 13.984 66.8472 13.76C66.3192 13.536 65.8512 13.224 65.4432 12.824C65.0352 12.424 64.7152 11.956 64.4832 11.42C64.2592 10.876 64.1472 10.292 64.1472 9.668ZM65.3472 9.68C65.3472 10.136 65.4312 10.564 65.5992 10.964C65.7672 11.356 65.9992 11.704 66.2952 12.008C66.5912 12.312 66.9352 12.548 67.3272 12.716C67.7192 12.884 68.1432 12.968 68.5992 12.968C69.1992 12.968 69.7392 12.824 70.2192 12.536C70.7072 12.24 71.0952 11.844 71.3832 11.348C71.6712 10.844 71.8152 10.284 71.8152 9.668C71.8152 9.212 71.7312 8.784 71.5632 8.384C71.3952 7.976 71.1632 7.62 70.8672 7.316C70.5712 7.012 70.2272 6.776 69.8352 6.608C69.4432 6.432 69.0232 6.344 68.5752 6.344C67.9672 6.344 67.4192 6.496 66.9312 6.8C66.4432 7.104 66.0552 7.508 65.7672 8.012C65.4872 8.516 65.3472 9.072 65.3472 9.68ZM76.5123 10.928C76.5123 11.312 76.6043 11.66 76.7883 11.972C76.9723 12.276 77.2203 12.52 77.5323 12.704C77.8523 12.88 78.2043 12.968 78.5883 12.968C78.9963 12.968 79.3563 12.88 79.6683 12.704C79.9883 12.52 80.2403 12.276 80.4243 11.972C80.6163 11.66 80.7123 11.312 80.7123 10.928V5.324H81.8523V10.964C81.8523 11.596 81.7043 12.148 81.4083 12.62C81.1203 13.092 80.7283 13.456 80.2323 13.712C79.7443 13.968 79.1963 14.096 78.5883 14.096C77.9803 14.096 77.4323 13.968 76.9443 13.712C76.4563 13.456 76.0683 13.092 75.7803 12.62C75.4923 12.148 75.3483 11.596 75.3483 10.964V5.324H76.5123V10.928ZM89.2133 6.872C88.9173 6.72 88.5933 6.588 88.2413 6.476C87.8893 6.364 87.5493 6.308 87.2213 6.308C86.7493 6.308 86.3733 6.416 86.0933 6.632C85.8213 6.848 85.6853 7.14 85.6853 7.508C85.6853 7.772 85.7733 7.996 85.9493 8.18C86.1333 8.364 86.3653 8.528 86.6453 8.672C86.9333 8.808 87.2373 8.936 87.5573 9.056C87.9173 9.192 88.2653 9.356 88.6013 9.548C88.9373 9.74 89.2133 10 89.4293 10.328C89.6533 10.648 89.7653 11.08 89.7653 11.624C89.7653 12.088 89.6493 12.508 89.4173 12.884C89.1853 13.252 88.8573 13.548 88.4333 13.772C88.0093 13.988 87.5053 14.096 86.9213 14.096C86.3453 14.096 85.8093 14.004 85.3133 13.82C84.8253 13.636 84.4093 13.424 84.0653 13.184L84.5813 12.26C84.8613 12.476 85.2053 12.664 85.6133 12.824C86.0293 12.984 86.4253 13.064 86.8013 13.064C87.0813 13.064 87.3533 13.016 87.6173 12.92C87.8893 12.824 88.1133 12.672 88.2893 12.464C88.4653 12.248 88.5533 11.972 88.5533 11.636C88.5533 11.348 88.4733 11.104 88.3133 10.904C88.1533 10.704 87.9453 10.536 87.6893 10.4C87.4413 10.256 87.1693 10.128 86.8733 10.016C86.6013 9.92 86.3253 9.808 86.0453 9.68C85.7653 9.552 85.5053 9.4 85.2653 9.224C85.0333 9.04 84.8453 8.816 84.7013 8.552C84.5573 8.288 84.4853 7.968 84.4853 7.592C84.4853 7.136 84.5933 6.74 84.8093 6.404C85.0333 6.06 85.3373 5.792 85.7213 5.6C86.1053 5.4 86.5493 5.292 87.0533 5.276C87.6053 5.276 88.0933 5.344 88.5173 5.48C88.9493 5.616 89.3293 5.78 89.6573 5.972L89.2133 6.872ZM92.1897 5.324H97.8297V6.44H93.3537V9.08H97.3497V10.196H93.3537V12.872H97.9977V14H92.1897V5.324ZM104.654 12.944L107.822 11.108L104.654 9.26V8.048L109.97 11.108L104.654 14.168V12.944Z" fill="white"/>
</svg>
