<svg width="203" height="41" viewBox="0 0 203 41" fill="none" xmlns="http://www.w3.org/2000/svg">
<rect width="203" height="41" fill="#162D43" fill-opacity="0.7"/>
<path d="M63.51 27.77H68.31V28.7H66.37V35H65.4V28.7H63.51V27.77ZM70.2603 27.77H71.2303V35H70.2603V27.77ZM79.9772 35.23L74.6672 29.85L74.6872 35H73.7072V27.55H73.7572L79.0572 33.01L79.0372 27.77H80.0072V35.23H79.9772ZM84.4061 32.59L81.7261 27.77H82.9261L84.9161 31.49L86.8961 27.77H88.0861L85.3761 32.59V35H84.4061V32.59ZM99.104 27.77V35H98.124V31.83H94.344V35H93.374V27.77H94.344V30.9H98.124V27.77H99.104ZM101.136 31.39C101.136 30.89 101.23 30.4167 101.416 29.97C101.61 29.5233 101.876 29.13 102.216 28.79C102.556 28.45 102.946 28.1833 103.386 27.99C103.833 27.79 104.31 27.69 104.816 27.69C105.323 27.69 105.8 27.79 106.246 27.99C106.7 28.1833 107.096 28.45 107.436 28.79C107.776 29.13 108.043 29.5233 108.236 29.97C108.43 30.4167 108.526 30.89 108.526 31.39C108.526 31.9033 108.43 32.3833 108.236 32.83C108.043 33.27 107.776 33.66 107.436 34C107.096 34.34 106.7 34.6067 106.246 34.8C105.8 34.9867 105.323 35.08 104.816 35.08C104.31 35.08 103.833 34.9867 103.386 34.8C102.946 34.6133 102.556 34.3533 102.216 34.02C101.876 33.6867 101.61 33.2967 101.416 32.85C101.23 32.3967 101.136 31.91 101.136 31.39ZM102.136 31.4C102.136 31.78 102.206 32.1367 102.346 32.47C102.486 32.7967 102.68 33.0867 102.926 33.34C103.173 33.5933 103.46 33.79 103.786 33.93C104.113 34.07 104.466 34.14 104.846 34.14C105.346 34.14 105.796 34.02 106.196 33.78C106.603 33.5333 106.926 33.2033 107.166 32.79C107.406 32.37 107.526 31.9033 107.526 31.39C107.526 31.01 107.456 30.6533 107.316 30.32C107.176 29.98 106.983 29.6833 106.736 29.43C106.49 29.1767 106.203 28.98 105.876 28.84C105.55 28.6933 105.2 28.62 104.826 28.62C104.32 28.62 103.863 28.7467 103.456 29C103.05 29.2533 102.726 29.59 102.486 30.01C102.253 30.43 102.136 30.8933 102.136 31.4ZM111.441 32.44C111.441 32.76 111.517 33.05 111.671 33.31C111.824 33.5633 112.031 33.7667 112.291 33.92C112.557 34.0667 112.851 34.14 113.171 34.14C113.511 34.14 113.811 34.0667 114.071 33.92C114.337 33.7667 114.547 33.5633 114.701 33.31C114.861 33.05 114.941 32.76 114.941 32.44V27.77H115.891V32.47C115.891 32.9967 115.767 33.4567 115.521 33.85C115.281 34.2433 114.954 34.5467 114.541 34.76C114.134 34.9733 113.677 35.08 113.171 35.08C112.664 35.08 112.207 34.9733 111.801 34.76C111.394 34.5467 111.071 34.2433 110.831 33.85C110.591 33.4567 110.471 32.9967 110.471 32.47V27.77H111.441V32.44ZM122.025 29.06C121.778 28.9333 121.508 28.8233 121.215 28.73C120.922 28.6367 120.638 28.59 120.365 28.59C119.972 28.59 119.658 28.68 119.425 28.86C119.198 29.04 119.085 29.2833 119.085 29.59C119.085 29.81 119.158 29.9967 119.305 30.15C119.458 30.3033 119.652 30.44 119.885 30.56C120.125 30.6733 120.378 30.78 120.645 30.88C120.945 30.9933 121.235 31.13 121.515 31.29C121.795 31.45 122.025 31.6667 122.205 31.94C122.392 32.2067 122.485 32.5667 122.485 33.02C122.485 33.4067 122.388 33.7567 122.195 34.07C122.002 34.3767 121.728 34.6233 121.375 34.81C121.022 34.99 120.602 35.08 120.115 35.08C119.635 35.08 119.188 35.0033 118.775 34.85C118.368 34.6967 118.022 34.52 117.735 34.32L118.165 33.55C118.398 33.73 118.685 33.8867 119.025 34.02C119.372 34.1533 119.702 34.22 120.015 34.22C120.248 34.22 120.475 34.18 120.695 34.1C120.922 34.02 121.108 33.8933 121.255 33.72C121.402 33.54 121.475 33.31 121.475 33.03C121.475 32.79 121.408 32.5867 121.275 32.42C121.142 32.2533 120.968 32.1133 120.755 32C120.548 31.88 120.322 31.7733 120.075 31.68C119.848 31.6 119.618 31.5067 119.385 31.4C119.152 31.2933 118.935 31.1667 118.735 31.02C118.542 30.8667 118.385 30.68 118.265 30.46C118.145 30.24 118.085 29.9733 118.085 29.66C118.085 29.28 118.175 28.95 118.355 28.67C118.542 28.3833 118.795 28.16 119.115 28C119.435 27.8333 119.805 27.7433 120.225 27.73C120.685 27.73 121.092 27.7867 121.445 27.9C121.805 28.0133 122.122 28.15 122.395 28.31L122.025 29.06ZM124.505 27.77H129.205V28.7H125.475V30.9H128.805V31.83H125.475V34.06H129.345V35H124.505V27.77ZM134.893 34.12L137.533 32.59L134.893 31.05V30.04L139.323 32.59L134.893 35.14V34.12Z" fill="white"/>
<path d="M57.9607 10.01L56.6867 9.604C56.6027 9.968 56.3787 10.458 56.2387 10.71C55.5807 11.984 54.1527 14.084 51.7447 15.582L52.6827 16.31C54.2507 15.232 55.4967 13.86 56.3927 12.6H61.1247C60.8447 13.748 60.1307 15.26 59.2207 16.478C58.2407 15.792 57.1907 15.12 56.2667 14.588L55.5107 15.358C56.4067 15.918 57.4707 16.646 58.4787 17.374C57.2187 18.732 55.4267 20.02 53.0607 20.748L54.0687 21.616C56.4347 20.734 58.1567 19.446 59.4027 18.06C59.9767 18.522 60.5087 18.956 60.9287 19.334L61.7547 18.368C61.3067 18.004 60.7467 17.57 60.1587 17.136C61.2227 15.708 61.9787 14.07 62.3427 12.782C62.4267 12.558 62.5527 12.222 62.6787 12.026L61.7547 11.466C61.5167 11.55 61.2087 11.606 60.8307 11.606H57.0367C57.1487 11.438 57.2467 11.27 57.3307 11.102C57.4707 10.85 57.7227 10.374 57.9607 10.01ZM66.2207 15.946L66.7807 17.038C68.7267 16.436 70.6447 15.596 72.1147 14.756V19.936C72.1147 20.468 72.0727 21.168 72.0307 21.434H73.4027C73.3467 21.154 73.3187 20.468 73.3187 19.936V14.028C74.7467 13.076 76.0347 12.012 77.0987 10.906L76.1607 10.038C75.1947 11.2 73.7947 12.418 72.3387 13.328C70.7847 14.308 68.6427 15.288 66.2207 15.946ZM82.0687 11.886V13.146C82.5027 13.132 82.9647 13.104 83.4547 13.104H89.4467C89.9087 13.104 90.4407 13.118 90.8327 13.146V11.886C90.4407 11.928 89.9507 11.942 89.4467 11.942H83.4547C82.9927 11.942 82.5167 11.914 82.0687 11.886ZM80.8647 18.816V20.16C81.3407 20.132 81.8307 20.09 82.3347 20.09H90.7207C91.0987 20.09 91.5747 20.118 91.9947 20.16V18.816C91.5887 18.858 91.1407 18.886 90.7207 18.886H82.3347C81.8307 18.886 81.3407 18.844 80.8647 18.816ZM95.5647 14.938V16.31C95.9987 16.268 96.7407 16.24 97.5107 16.24H105.197C105.827 16.24 106.415 16.296 106.695 16.31V14.938C106.387 14.966 105.883 15.008 105.183 15.008H97.5107C96.7267 15.008 95.9847 14.966 95.5647 14.938ZM111.629 16.562C111.153 17.724 110.355 19.208 109.473 20.37L110.663 20.874C111.447 19.74 112.217 18.312 112.735 17.024C113.323 15.582 113.813 13.51 113.995 12.642C114.065 12.348 114.163 11.928 114.261 11.62L113.015 11.368C112.819 12.978 112.245 15.106 111.629 16.562ZM118.531 16.03C119.105 17.514 119.763 19.418 120.113 20.846L121.359 20.44C120.981 19.18 120.239 17.024 119.679 15.652C119.077 14.168 118.181 12.236 117.635 11.214L116.501 11.592C117.103 12.642 117.971 14.588 118.531 16.03ZM130.557 9.786H129.213C129.269 10.22 129.283 10.542 129.283 10.836V12.138H126.189C125.699 12.138 125.293 12.124 124.887 12.082C124.929 12.39 124.929 12.866 124.929 13.16V15.624C124.929 15.89 124.915 16.268 124.887 16.52H126.105C126.063 16.296 126.049 15.932 126.049 15.68V13.174H133.875C133.749 14.378 133.301 16.072 132.545 17.262C131.691 18.578 130.151 19.628 128.751 20.076C128.303 20.244 127.771 20.398 127.295 20.468L128.205 21.518C130.767 20.818 132.699 19.39 133.749 17.556C134.533 16.212 134.939 14.462 135.121 13.342C135.177 13.076 135.261 12.712 135.331 12.502L134.575 12.026C134.393 12.096 134.127 12.138 133.609 12.138H130.473V10.836C130.473 10.542 130.487 10.22 130.557 9.786ZM148.743 11.634L148.029 11.088C147.805 11.158 147.441 11.2 146.979 11.2H141.575C141.155 11.2 140.357 11.144 140.161 11.116V12.39C140.315 12.376 141.085 12.32 141.575 12.32H147.035C146.685 13.482 145.663 15.134 144.711 16.212C143.269 17.822 141.197 19.488 138.943 20.37L139.839 21.308C141.911 20.37 143.801 18.83 145.299 17.22C146.727 18.494 148.211 20.146 149.149 21.378L150.129 20.538C149.219 19.432 147.511 17.612 146.041 16.352C147.035 15.092 147.917 13.454 148.393 12.25C148.477 12.054 148.659 11.746 148.743 11.634Z" fill="white"/>
</svg>
